_Griffith_Gothic-Condensed_Thin_WebTT.ufo
<glyph name="exclam" format="1">
  <advance width="389.12"/>
  <unicode hex="0021"/>
  <outline>
    <contour>
      <point x="195" y="117" type="qcurve" smooth="yes"/>
      <point x="223.358208955" y="117.0"/>
      <point x="260.0" y="80.1044776119"/>
      <point x="260" y="51" type="qcurve" smooth="yes"/>
      <point x="260.0" y="21.8955223881"/>
      <point x="223.358208955" y="-14.0"/>
      <point x="195" y="-14" type="qcurve" smooth="yes"/>
      <point x="165.895522388" y="-14.0"/>
      <point x="129.0" y="21.8955223881"/>
      <point x="129" y="51" type="qcurve" smooth="yes"/>
      <point x="129.0" y="80.1044776119"/>
      <point x="165.895522388" y="117.0"/>
    </contour>
    <contour>
      <point x="150" y="1475" type="line"/>
      <point x="240" y="1475" type="line"/>
      <point x="213" y="365" type="line"/>
      <point x="176" y="365" type="line"/>
    </contour>
  </outline>
</glyph>
<glyph name="dollar" format="1">
  <advance width="849.92"/>
  <unicode hex="0024"/>
  <outline>
    <contour>
      <point x="461" y="799" type="line"/>
      <point x="633.388059701" y="719.149253731"/>
      <point x="786.0" y="516.253731343"/>
      <point x="786" y="367" type="qcurve" smooth="yes"/>
      <point x="786.0" y="195.358208955"/>
      <point x="592.343283582" y="6.9552238806"/>
      <point x="461" y="-2" type="qcurve"/>
      <point x="461" y="-195" type="line"/>
      <point x="399" y="-195" type="line"/>
      <point x="399" y="-2" type="line"/>
      <point x="292.28358209" y="3.97014925373"/>
      <point x="126.402985075" y="110.223880597"/>
      <point x="57" y="205" type="qcurve"/>
      <point x="109" y="252" type="line"/>
      <point x="169.447761194" y="163.194029851"/>
      <point x="310.940298507" y="63.7164179104"/>
      <point x="399" y="57" type="qcurve"/>
      <point x="399" y="745" type="line"/>
      <point x="258.701492537" y="807.686567164"/>
      <point x="94.0" y="993.47761194"/>
      <point x="94" y="1139" type="qcurve" smooth="yes"/>
      <point x="94.0" y="1283.7761194"/>
      <point x="270.641791045" y="1468.79104478"/>
      <point x="399" y="1477" type="qcurve"/>
      <point x="399" y="1561" type="line"/>
      <point x="461" y="1561" type="line"/>
      <point x="461" y="1477" type="line"/>
      <point x="551.298507463" y="1468.79104478"/>
      <point x="694.328358209" y="1375.82089552"/>
      <point x="760" y="1290" type="qcurve"/>
      <point x="709" y="1243" type="line"/>
      <point x="650.791044776" y="1324.34328358"/>
      <point x="529.656716418" y="1409.53731343"/>
      <point x="461" y="1417" type="qcurve"/>
    </contour>
    <contour>
      <point x="170" y="1145" type="qcurve" smooth="yes"/>
      <point x="170.0" y="1031.56716418"/>
      <point x="284.820895522" y="882.223880597"/>
      <point x="399" y="827" type="qcurve"/>
      <point x="399" y="1417" type="line"/>
      <point x="292.28358209" y="1409.53731343"/>
      <point x="170.0" y="1259.17910448"/>
    </contour>
    <contour>
      <point x="461" y="55" type="line"/>
      <point x="578.164179104" y="66.1940298507"/>
      <point x="711.0" y="224.179104478"/>
      <point x="711" y="360" type="qcurve" smooth="yes"/>
      <point x="711.0" y="479.402985075"/>
      <point x="604.28358209" y="645.358208955"/>
      <point x="461" y="717" type="qcurve"/>
    </contour>
  </outline>
</glyph>
<glyph name="ampersand" format="1">
  <advance width="1075.2"/>
  <unicode hex="0026"/>
  <outline>
    <contour>
      <point x="1077" y="68" type="qcurve"/>
      <point x="1077" y="8" type="line"/>
      <point x="1056.10447761" y="-2.44776119403"/>
      <point x="1012.10447761" y="-12.0"/>
      <point x="983" y="-12" type="qcurve" smooth="yes"/>
      <point x="912.850746269" y="-12.0"/>
      <point x="801.149253731" y="61.7611940299"/>
      <point x="731" y="164" type="qcurve"/>
      <point x="663.835820896" y="76.6865671642"/>
      <point x="504.298507463" y="-20.0"/>
      <point x="414" y="-20" type="qcurve" smooth="yes"/>
      <point x="258.029850746" y="-20.0"/>
      <point x="63.0" y="214.134328358"/>
      <point x="63" y="391" type="qcurve" smooth="yes"/>
      <point x="63.0" y="525.328358209"/>
      <point x="194.0" y="753.76119403"/>
      <point x="344" y="856" type="qcurve"/>
      <point x="299.970149254" y="946.298507463"/>
      <point x="242.0" y="1128.19402985"/>
      <point x="242" y="1217" type="qcurve" smooth="yes"/>
      <point x="242.0" y="1332.67164179"/>
      <point x="370.791044776" y="1499.0"/>
      <point x="479" y="1499" type="qcurve" smooth="yes"/>
      <point x="581.23880597" y="1499.0"/>
      <point x="680.0" y="1347.71641791"/>
      <point x="680" y="1241" type="qcurve" smooth="yes"/>
      <point x="680.0" y="1108.1641791"/>
      <point x="546.417910448" y="920.597014925"/>
      <point x="430" y="840" type="qcurve"/>
      <point x="530.746268657" y="645.970149254"/>
      <point x="681.537313433" y="369.567164179"/>
      <point x="739" y="283" type="qcurve"/>
      <point x="794.223880597" y="377.776119403"/>
      <point x="888.925373134" y="628.208955224"/>
      <point x="924" y="770" type="qcurve"/>
      <point x="981" y="737" type="line"/>
      <point x="941.447761194" y="582.52238806"/>
      <point x="837.194029851" y="323.268656716"/>
      <point x="776" y="227" type="qcurve"/>
      <point x="849.134328358" y="117.298507463"/>
      <point x="938.014925373" y="49.0"/>
      <point x="991" y="49" type="qcurve" smooth="yes"/>
      <point x="1021.59701493" y="49.0"/>
      <point x="1056.10447761" y="58.2985074627"/>
    </contour>
    <contour>
      <point x="414" y="39" type="qcurve" smooth="yes"/>
      <point x="493.104477612" y="39.0"/>
      <point x="634.805970149" y="132.671641791"/>
      <point x="696" y="217" type="qcurve"/>
      <point x="633.313432836" y="314.76119403"/>
      <point x="470.253731343" y="602.492537313"/>
      <point x="371" y="801" type="qcurve"/>
      <point x="244.134328358" y="710.701492537"/>
      <point x="139.0" y="514.402985075"/>
      <point x="139" y="395" type="qcurve" smooth="yes"/>
      <point x="139.0" y="256.194029851"/>
      <point x="288.626865672" y="39.0"/>
    </contour>
    <contour>
      <point x="401" y="895" type="qcurve"/>
      <point x="511.447761194" y="969.626865672"/>
      <point x="610.0" y="1136.25373134"/>
      <point x="610" y="1237" type="qcurve" smooth="yes"/>
      <point x="610.0" y="1324.31343284"/>
      <point x="539.686567164" y="1440.0"/>
      <point x="477" y="1440" type="qcurve" smooth="yes"/>
      <point x="394.910447761" y="1440.0"/>
      <point x="313.0" y="1303.08955224"/>
      <point x="313" y="1221" type="qcurve" smooth="yes"/>
      <point x="313.0" y="1141.14925373"/>
      <point x="361.447761194" y="976.343283582"/>
    </contour>
  </outline>
</glyph>
<glyph name="parenleft" format="1">
  <advance width="475.136"/>
  <unicode hex="0028"/>
  <outline>
    <contour>
      <point x="178" y="655" type="qcurve" smooth="yes"/>
      <point x="178.0" y="390.820895522"/>
      <point x="312.029850746" y="-26.3432835821"/>
      <point x="418" y="-195" type="qcurve"/>
      <point x="356" y="-195" type="line"/>
      <point x="258.23880597" y="-49.4776119403"/>
      <point x="100.0" y="372.164179104"/>
      <point x="100" y="655" type="qcurve" smooth="yes"/>
      <point x="100.0" y="937.835820896"/>
      <point x="258.23880597" y="1360.2238806"/>
      <point x="356" y="1505" type="qcurve"/>
      <point x="418" y="1505" type="line"/>
      <point x="312.029850746" y="1337.08955224"/>
      <point x="178.0" y="919.925373134"/>
    </contour>
  </outline>
</glyph>
<glyph name="parenright" format="1">
  <advance width="475.136"/>
  <unicode hex="0029"/>
  <outline>
    <contour>
      <point x="119" y="1505" type="line"/>
      <point x="216.76119403" y="1360.2238806"/>
      <point x="375.0" y="937.835820896"/>
      <point x="375" y="655" type="qcurve" smooth="yes"/>
      <point x="375.0" y="372.164179104"/>
      <point x="216.76119403" y="-49.4776119403"/>
      <point x="119" y="-195" type="qcurve"/>
      <point x="57" y="-195" type="line"/>
      <point x="162.970149254" y="-26.3432835821"/>
      <point x="297.0" y="390.820895522"/>
      <point x="297" y="655" type="qcurve" smooth="yes"/>
      <point x="297.0" y="919.925373134"/>
      <point x="162.970149254" y="1337.08955224"/>
      <point x="57" y="1505" type="qcurve"/>
    </contour>
  </outline>
</glyph>
<glyph name="period" format="1">
  <advance width="266.24"/>
  <unicode hex="002E"/>
  <outline>
    <contour>
      <point x="143" y="117" type="qcurve" smooth="yes"/>
      <point x="172.104477612" y="117.0"/>
      <point x="209.0" y="80.1044776119"/>
      <point x="209" y="51" type="qcurve" smooth="yes"/>
      <point x="209.0" y="21.8955223881"/>
      <point x="172.104477612" y="-14.0"/>
      <point x="143" y="-14" type="qcurve" smooth="yes"/>
      <point x="113.895522388" y="-14.0"/>
      <point x="78.0" y="21.8955223881"/>
      <point x="78" y="51" type="qcurve" smooth="yes"/>
      <point x="78.0" y="80.1044776119"/>
      <point x="113.895522388" y="117.0"/>
    </contour>
  </outline>
</glyph>
<glyph name="one" format="1">
  <advance width="706.56"/>
  <unicode hex="0031"/>
  <outline>
    <contour>
      <point x="666" y="61" type="line"/>
      <point x="666" y="0" type="line"/>
      <point x="88" y="0" type="line"/>
      <point x="88" y="61" type="line"/>
      <point x="344" y="61" type="line"/>
      <point x="344" y="1413" type="line"/>
      <point x="70" y="1413" type="line"/>
      <point x="70" y="1475" type="line"/>
      <point x="418" y="1475" type="line"/>
      <point x="418" y="61" type="line"/>
    </contour>
  </outline>
</glyph>
<glyph name="two" format="1">
  <advance width="884.736"/>
  <unicode hex="0032"/>
  <outline>
    <contour>
      <point x="782" y="61" type="line"/>
      <point x="782" y="0" type="line"/>
      <point x="104" y="0" type="line"/>
      <point x="104" y="51" type="line"/>
      <point x="147.28358209" y="236.074626866"/>
      <point x="314.552238806" y="513.52238806"/>
      <point x="475" y="668" type="qcurve" smooth="yes"/>
      <point x="580.223880597" y="770.23880597"/>
      <point x="688.0" y="967.701492537"/>
      <point x="688" y="1108" type="qcurve" smooth="yes"/>
      <point x="688.0" y="1245.31343284"/>
      <point x="571.149253731" y="1438.0"/>
      <point x="451" y="1438" type="qcurve" smooth="yes"/>
      <point x="343.537313433" y="1438.0"/>
      <point x="210.507462687" y="1285.7761194"/>
      <point x="162" y="1141" type="qcurve"/>
      <point x="98" y="1167" type="line"/>
      <point x="148.746268657" y="1322.97014925"/>
      <point x="326.134328358" y="1499.0"/>
      <point x="453" y="1499" type="qcurve" smooth="yes"/>
      <point x="610.462686567" y="1499.0"/>
      <point x="766.0" y="1269.46268657"/>
      <point x="766" y="1112" type="qcurve" smooth="yes"/>
      <point x="766.0" y="945.582089552"/>
      <point x="629.880597015" y="726.895522388"/>
      <point x="506" y="606" type="qcurve" smooth="yes"/>
      <point x="368.686567164" y="473.164179104"/>
      <point x="212.597014925" y="212.492537313"/>
      <point x="182" y="61" type="qcurve"/>
    </contour>
  </outline>
</glyph>
<glyph name="three" format="1">
  <advance width="819.2"/>
  <unicode hex="0033"/>
  <outline>
    <contour>
      <point x="416" y="815" type="line"/>
      <point x="551.820895522" y="842.611940299"/>
      <point x="745.0" y="694.119402985"/>
      <point x="745" y="518" type="qcurve" smooth="yes"/>
      <point x="745.0" y="265.76119403"/>
      <point x="309.119402985" y="-14.9850746269"/>
      <point x="33" y="-12" type="qcurve"/>
      <point x="33" y="49" type="line"/>
      <point x="301.656716418" y="49.0"/>
      <point x="668.0" y="296.835820896"/>
      <point x="668" y="514" type="qcurve" smooth="yes"/>
      <point x="668.0" y="640.865671642"/>
      <point x="557.746268657" y="768.0"/>
      <point x="457" y="768" type="qcurve" smooth="yes"/>
      <point x="403.268656716" y="768.0"/>
      <point x="326.074626866" y="751.686567164"/>
      <point x="291" y="739" type="qcurve"/>
      <point x="274" y="797" type="line"/>
      <point x="439.671641791" y="879.089552239"/>
      <point x="604.0" y="1057.67164179"/>
      <point x="604" y="1192" type="qcurve" smooth="yes"/>
      <point x="604.0" y="1297.2238806"/>
      <point x="502.268656716" y="1438.0"/>
      <point x="406" y="1438" type="qcurve" smooth="yes"/>
      <point x="323.164179104" y="1438.0"/>
      <point x="195.208955224" y="1337.7761194"/>
      <point x="137" y="1243" type="qcurve"/>
      <point x="86" y="1280" type="line"/>
      <point x="150.179104478" y="1379.25373134"/>
      <point x="302.537313433" y="1499.0"/>
      <point x="410" y="1499" type="qcurve" smooth="yes"/>
      <point x="538.358208955" y="1499.0"/>
      <point x="682.0" y="1331.85074627"/>
      <point x="682" y="1202" type="qcurve" smooth="yes"/>
      <point x="682.0" y="1070.65671642"/>
      <point x="537.880597015" y="890.164179104"/>
      <point x="414" y="823" type="qcurve"/>
    </contour>
  </outline>
</glyph>
<glyph name="four" format="1">
  <advance width="901.12"/>
  <unicode hex="0034"/>
  <outline>
    <contour>
      <point x="834" y="489" type="line"/>
      <point x="834" y="430" type="line"/>
      <point x="678" y="430" type="line"/>
      <point x="678" y="0" type="line"/>
      <point x="604" y="0" type="line"/>
      <point x="604" y="430" type="line"/>
      <point x="70" y="430" type="line"/>
      <point x="70" y="526" type="line"/>
      <point x="563" y="1475" type="line"/>
      <point x="678" y="1475" type="line"/>
      <point x="678" y="489" type="line"/>
    </contour>
    <contour>
      <point x="131" y="489" type="line"/>
      <point x="604" y="489" type="line"/>
      <point x="604" y="1397" type="line"/>
      <point x="588" y="1397" type="line"/>
      <point x="131" y="512" type="line"/>
    </contour>
  </outline>
</glyph>
<glyph name="six" format="1">
  <advance width="876.544"/>
  <unicode hex="0036"/>
  <outline>
    <contour>
      <point x="477" y="899" type="qcurve" smooth="yes"/>
      <point x="621.029850746" y="899.0"/>
      <point x="823.0" y="661.447761194"/>
      <point x="823" y="451" type="qcurve" smooth="yes"/>
      <point x="823.0" y="239.805970149"/>
      <point x="607.955223881" y="-25.0"/>
      <point x="449" y="-25" type="qcurve" smooth="yes"/>
      <point x="286.313432836" y="-25.0"/>
      <point x="84.0" y="244.268656716"/>
      <point x="84" y="498" type="qcurve" smooth="yes"/>
      <point x="84.0" y="760.686567164"/>
      <point x="276.373134328" y="1269.7761194"/>
      <point x="451" y="1475" type="qcurve"/>
      <point x="543" y="1475" type="line"/>
      <point x="385.537313433" y="1301.86567164"/>
      <point x="190.119402985" y="885.074626866"/>
      <point x="164" y="700" type="qcurve"/>
      <point x="176" y="700" type="line"/>
      <point x="232.71641791" y="793.28358209"/>
      <point x="370.28358209" y="899.0"/>
    </contour>
    <contour>
      <point x="453" y="37" type="qcurve" smooth="yes"/>
      <point x="582.850746269" y="37.0"/>
      <point x="745.0" y="264.656716418"/>
      <point x="745" y="446" type="qcurve" smooth="yes"/>
      <point x="745.0" y="623.611940299"/>
      <point x="595.358208955" y="838.0"/>
      <point x="467" y="838" type="qcurve" smooth="yes"/>
      <point x="334.164179104" y="838.0"/>
      <point x="162.0" y="606.686567164"/>
      <point x="162" y="444" type="qcurve" smooth="yes"/>
      <point x="162.0" y="267.134328358"/>
      <point x="320.910447761" y="37.0"/>
    </contour>
  </outline>
</glyph>
<glyph name="seven" format="1">
  <advance width="772.096"/>
  <unicode hex="0037"/>
  <outline>
    <contour>
      <point x="743" y="1475" type="line"/>
      <point x="743" y="1423" type="line"/>
      <point x="572.104477612" y="1143.89552239"/>
      <point x="300.507462687" y="348.507462687"/>
      <point x="252" y="0" type="qcurve"/>
      <point x="176" y="0" type="line"/>
      <point x="218.537313433" y="302.985074627"/>
      <point x="490.865671642" y="1121.20895522"/>
      <point x="664" y="1413" type="qcurve"/>
      <point x="33" y="1413" type="line"/>
      <point x="33" y="1475" type="line"/>
    </contour>
  </outline>
</glyph>
<glyph name="nine" format="1">
  <advance width="876.544"/>
  <unicode hex="0039"/>
  <outline>
    <contour>
      <point x="428" y="1499" type="qcurve" smooth="yes"/>
      <point x="589.940298507" y="1499.0"/>
      <point x="793.0" y="1230.73134328"/>
      <point x="793" y="977" type="qcurve" smooth="yes"/>
      <point x="793.0" y="714.313432836"/>
      <point x="599.880597015" y="204.47761194"/>
      <point x="426" y="0" type="qcurve"/>
      <point x="334" y="0" type="line"/>
      <point x="491.462686567" y="172.388059701"/>
      <point x="686.880597015" y="588.925373134"/>
      <point x="713" y="774" type="qcurve"/>
      <point x="700" y="774" type="line"/>
      <point x="644.029850746" y="680.71641791"/>
      <point x="506.462686567" y="575.0"/>
      <point x="399" y="575" type="qcurve" smooth="yes"/>
      <point x="255.71641791" y="575.0"/>
      <point x="53.0" y="812.805970149"/>
      <point x="53" y="1024" type="qcurve" smooth="yes"/>
      <point x="53.0" y="1235.19402985"/>
      <point x="269.044776119" y="1499.0"/>
    </contour>
    <contour>
      <point x="410" y="637" type="qcurve" smooth="yes"/>
      <point x="542.835820896" y="637.0"/>
      <point x="715.0" y="868.059701493"/>
      <point x="715" y="1030" type="qcurve" smooth="yes"/>
      <point x="715.0" y="1207.6119403"/>
      <point x="555.343283582" y="1438.0"/>
      <point x="424" y="1438" type="qcurve" smooth="yes"/>
      <point x="294.149253731" y="1438.0"/>
      <point x="131.0" y="1210.08955224"/>
      <point x="131" y="1028" type="qcurve" smooth="yes"/>
      <point x="131.0" y="851.134328358"/>
      <point x="281.641791045" y="637.0"/>
    </contour>
  </outline>
</glyph>
<glyph name="equal" format="1">
  <advance width="962.56"/>
  <unicode hex="003D"/>
  <outline>
    <contour>
      <point x="864" y="575" type="line"/>
      <point x="864" y="508" type="line"/>
      <point x="98" y="508" type="line"/>
      <point x="98" y="575" type="line"/>
    </contour>
    <contour>
      <point x="864" y="948" type="line"/>
      <point x="864" y="881" type="line"/>
      <point x="98" y="881" type="line"/>
      <point x="98" y="948" type="line"/>
    </contour>
  </outline>
</glyph>
<glyph name="greater" format="1">
  <advance width="962.56"/>
  <unicode hex="003E"/>
  <outline>
    <contour>
      <point x="881" y="760" type="line"/>
      <point x="881" y="696" type="line"/>
      <point x="94" y="334" type="line"/>
      <point x="94" y="401" type="line"/>
      <point x="811" y="729" type="line"/>
      <point x="94" y="1057" type="line"/>
      <point x="94" y="1124" type="line"/>
    </contour>
  </outline>
</glyph>
<glyph name="question" format="1">
  <advance width="688.128"/>
  <unicode hex="003F"/>
  <outline>
    <contour>
      <point x="342" y="1499" type="qcurve" smooth="yes"/>
      <point x="462.895522388" y="1499.0"/>
      <point x="608.0" y="1320.29850746"/>
      <point x="608" y="1180" type="qcurve" smooth="yes"/>
      <point x="608.0" y="1059.10447761"/>
      <point x="534.582089552" y="905.179104478"/>
      <point x="451" y="791" type="qcurve" smooth="yes"/>
      <point x="384.582089552" y="702.194029851"/>
      <point x="340.0" y="540.373134328"/>
      <point x="340" y="365" type="qcurve"/>
      <point x="295" y="365" type="line"/>
      <point x="293.507462687" y="562.014925373"/>
      <point x="335.641791045" y="746.268656716"/>
      <point x="414" y="850" type="qcurve" smooth="yes"/>
      <point x="478.179104478" y="934.328358209"/>
      <point x="535.0" y="1082.94029851"/>
      <point x="535" y="1171" type="qcurve" smooth="yes"/>
      <point x="535.0" y="1284.43283582"/>
      <point x="427.791044776" y="1432.0"/>
      <point x="336" y="1432" type="qcurve" smooth="yes"/>
      <point x="248.686567164" y="1432.0"/>
      <point x="138.328358209" y="1309.43283582"/>
      <point x="104" y="1196" type="qcurve"/>
      <point x="45" y="1221" type="line"/>
      <point x="78.5820895522" y="1352.34328358"/>
      <point x="227.074626866" y="1499.0"/>
    </contour>
    <contour>
      <point x="317" y="117" type="qcurve" smooth="yes"/>
      <point x="346.104477612" y="117.0"/>
      <point x="383.0" y="80.1044776119"/>
      <point x="383" y="51" type="qcurve" smooth="yes"/>
      <point x="383.0" y="21.8955223881"/>
      <point x="346.104477612" y="-14.0"/>
      <point x="317" y="-14" type="qcurve" smooth="yes"/>
      <point x="288.641791045" y="-14.0"/>
      <point x="252.0" y="21.8955223881"/>
      <point x="252" y="51" type="qcurve" smooth="yes"/>
      <point x="252.0" y="80.1044776119"/>
      <point x="288.641791045" y="117.0"/>
    </contour>
  </outline>
</glyph>
<glyph name="A" format="1">
  <advance width="1056.768"/>
  <unicode hex="0041"/>
  <outline>
    <contour>
      <point x="586" y="1483" type="line"/>
      <point x="1006" y="0" type="line"/>
      <point x="928" y="0" type="line"/>
      <point x="811" y="412" type="line"/>
      <point x="240" y="412" type="line"/>
      <point x="125" y="0" type="line"/>
      <point x="51" y="0" type="line"/>
      <point x="471" y="1483" type="line"/>
    </contour>
    <contour>
      <point x="258" y="475" type="line"/>
      <point x="795" y="475" type="line"/>
      <point x="532" y="1405" type="line"/>
      <point x="520" y="1405" type="line"/>
    </contour>
  </outline>
</glyph>
<glyph name="B" format="1">
  <advance width="972.8"/>
  <unicode hex="0042"/>
  <outline>
    <contour>
      <point x="604" y="797" type="line"/>
      <point x="729.373134328" y="769.388059701"/>
      <point x="891.0" y="585.373134328"/>
      <point x="891" y="410" type="qcurve" smooth="yes"/>
      <point x="891.0" y="210.746268657"/>
      <point x="657.089552239" y="0.0"/>
      <point x="475" y="0" type="qcurve" smooth="yes"/>
      <point x="147" y="0" type="line"/>
      <point x="147" y="1475" type="line"/>
      <point x="483" y="1475" type="line" smooth="yes"/>
      <point x="644.940298507" y="1475.0"/>
      <point x="840.0" y="1285.97014925"/>
      <point x="840" y="1130" type="qcurve" smooth="yes"/>
      <point x="840.0" y="991.194029851"/>
      <point x="700.268656716" y="835.597014925"/>
      <point x="604" y="805" type="qcurve"/>
    </contour>
    <contour>
      <point x="477" y="61" type="line" smooth="yes"/>
      <point x="629.985074627" y="61.0"/>
      <point x="813.0" y="231.089552239"/>
      <point x="813" y="399" type="qcurve" smooth="yes"/>
      <point x="813.0" y="567.656716418"/>
      <point x="653.597014925" y="762.0"/>
      <point x="473" y="762" type="qcurve" smooth="yes"/>
      <point x="225" y="762" type="line"/>
      <point x="225" y="61" type="line"/>
    </contour>
    <contour>
      <point x="467" y="827" type="line" smooth="yes"/>
      <point x="598.343283582" y="827.0"/>
      <point x="762.0" y="976.268656716"/>
      <point x="762" y="1130" type="qcurve" smooth="yes"/>
      <point x="762.0" y="1268.05970149"/>
      <point x="608.343283582" y="1413.0"/>
      <point x="477" y="1413" type="qcurve" smooth="yes"/>
      <point x="225" y="1413" type="line"/>
      <point x="225" y="827" type="line"/>
    </contour>
  </outline>
</glyph>
<glyph name="C" format="1">
  <advance width="911.36"/>
  <unicode hex="0043"/>
  <outline>
    <contour>
      <point x="778" y="430" type="qcurve"/>
      <point x="846" y="410" type="line"/>
      <point x="807.940298507" y="217.462686567"/>
      <point x="639.447761194" y="-25.0"/>
      <point x="479" y="-25" type="qcurve" smooth="yes"/>
      <point x="295.417910448" y="-25.0"/>
      <point x="92.0" y="351.776119403"/>
      <point x="92" y="657" type="qcurve" smooth="yes"/>
      <point x="92" y="813" type="line" smooth="yes"/>
      <point x="92.0" y="1120.46268657"/>
      <point x="297.149253731" y="1499.0"/>
      <point x="477" y="1499" type="qcurve" smooth="yes"/>
      <point x="624.014925373" y="1499.0"/>
      <point x="797.194029851" y="1285.07462687"/>
      <point x="836" y="1100" type="qcurve"/>
      <point x="766" y="1073" type="line"/>
      <point x="730.925373134" y="1240.91044776"/>
      <point x="596.402985075" y="1438.0"/>
      <point x="477" y="1438" type="qcurve" smooth="yes"/>
      <point x="325.507462687" y="1438.0"/>
      <point x="170.0" y="1081.17910448"/>
      <point x="170" y="817" type="qcurve" smooth="yes"/>
      <point x="170" y="662" type="line" smooth="yes"/>
      <point x="170.0" y="397.074626866"/>
      <point x="328.52238806" y="37.0"/>
      <point x="483" y="37" type="qcurve" smooth="yes"/>
      <point x="603.895522388" y="37.0"/>
      <point x="738.447761194" y="241.940298507"/>
    </contour>
  </outline>
</glyph>
<glyph name="F" format="1">
  <advance width="804.864"/>
  <unicode hex="0046"/>
  <outline>
    <contour>
      <point x="776" y="1475" type="line"/>
      <point x="776" y="1413" type="line"/>
      <point x="225" y="1413" type="line"/>
      <point x="225" y="774" type="line"/>
      <point x="676" y="774" type="line"/>
      <point x="676" y="713" type="line"/>
      <point x="225" y="713" type="line"/>
      <point x="225" y="0" type="line"/>
      <point x="147" y="0" type="line"/>
      <point x="147" y="1475" type="line"/>
    </contour>
  </outline>
</glyph>
<glyph name="G" format="1">
  <advance width="976.896"/>
  <unicode hex="0047"/>
  <outline>
    <contour>
      <point x="877" y="664" type="line"/>
      <point x="877" y="0" type="line"/>
      <point x="821" y="0" type="line"/>
      <point x="821" y="471" type="line"/>
      <point x="813" y="471" type="line"/>
      <point x="779.417910448" y="237.417910448"/>
      <point x="624.970149254" y="-25.0"/>
      <point x="469" y="-25" type="qcurve" smooth="yes"/>
      <point x="296.611940299" y="-25.0"/>
      <point x="92.0" y="350.791044776"/>
      <point x="92" y="659" type="qcurve" smooth="yes"/>
      <point x="92" y="813" type="line" smooth="yes"/>
      <point x="92.0" y="1120.46268657"/>
      <point x="305.119402985" y="1499.0"/>
      <point x="479" y="1499" type="qcurve" smooth="yes"/>
      <point x="629.0" y="1499.0"/>
      <point x="791.223880597" y="1300.43283582"/>
      <point x="836" y="1137" type="qcurve"/>
      <point x="768" y="1106" type="line"/>
      <point x="731.432835821" y="1250.7761194"/>
      <point x="596.910447761" y="1438.0"/>
      <point x="479" y="1438" type="qcurve" smooth="yes"/>
      <point x="329.746268657" y="1438.0"/>
      <point x="170.0" y="1081.17910448"/>
      <point x="170" y="817" type="qcurve" smooth="yes"/>
      <point x="170" y="664" type="line" smooth="yes"/>
      <point x="170.0" y="393.104477612"/>
      <point x="330.731343284" y="37.0"/>
      <point x="477" y="37" type="qcurve" smooth="yes"/>
      <point x="618.044776119" y="37.0"/>
      <point x="755.104477612" y="339.313432836"/>
      <point x="776" y="602" type="qcurve"/>
      <point x="504" y="602" type="line"/>
      <point x="504" y="664" type="line"/>
    </contour>
  </outline>
</glyph>
<glyph name="I" format="1">
  <advance width="606.208"/>
  <unicode hex="0049"/>
  <outline>
    <contour>
      <point x="510" y="51" type="line"/>
      <point x="510" y="0" type="line"/>
      <point x="96" y="0" type="line"/>
      <point x="96" y="51" type="line"/>
      <point x="264" y="51" type="line"/>
      <point x="264" y="1423" type="line"/>
      <point x="96" y="1423" type="line"/>
      <point x="96" y="1475" type="line"/>
      <point x="510" y="1475" type="line"/>
      <point x="510" y="1423" type="line"/>
      <point x="342" y="1423" type="line"/>
      <point x="342" y="51" type="line"/>
    </contour>
  </outline>
</glyph>
<glyph name="K" format="1">
  <advance width="929.792"/>
  <unicode hex="004B"/>
  <outline>
    <contour>
      <point x="367" y="801" type="line"/>
      <point x="926" y="0" type="line"/>
      <point x="831" y="0" type="line"/>
      <point x="279" y="797" type="line"/>
      <point x="279" y="801" type="line"/>
      <point x="809" y="1475" type="line"/>
      <point x="901" y="1475" type="line"/>
    </contour>
    <contour>
      <point x="225" y="1475" type="line"/>
      <point x="225" y="0" type="line"/>
      <point x="147" y="0" type="line"/>
      <point x="147" y="1475" type="line"/>
    </contour>
  </outline>
</glyph>
<glyph name="N" format="1">
  <advance width="1028.096"/>
  <unicode hex="004E"/>
  <outline>
    <contour>
      <point x="881" y="1475" type="line"/>
      <point x="881" y="0" type="line"/>
      <point x="774" y="0" type="line"/>
      <point x="227" y="1366" type="line"/>
      <point x="217" y="1366" type="line"/>
      <point x="217" y="0" type="line"/>
      <point x="147" y="0" type="line"/>
      <point x="147" y="1475" type="line"/>
      <point x="258" y="1475" type="line"/>
      <point x="801" y="125" type="line"/>
      <point x="811" y="125" type="line"/>
      <point x="811" y="1475" type="line"/>
    </contour>
  </outline>
</glyph>
<glyph name="O" format="1">
  <advance width="974.848"/>
  <unicode hex="004F"/>
  <outline>
    <contour>
      <point x="883" y="817" type="qcurve" smooth="yes"/>
      <point x="883" y="662" type="line" smooth="yes"/>
      <point x="883.0" y="354.537313433"/>
      <point x="676.552238806" y="-25.0"/>
      <point x="487" y="-25" type="qcurve" smooth="yes"/>
      <point x="297.447761194" y="-25.0"/>
      <point x="92.0" y="350.28358209"/>
      <point x="92" y="657" type="qcurve" smooth="yes"/>
      <point x="92" y="813" type="line" smooth="yes"/>
      <point x="92.0" y="1120.46268657"/>
      <point x="297.447761194" y="1499.0"/>
      <point x="487" y="1499" type="qcurve" smooth="yes"/>
      <point x="676.552238806" y="1499.0"/>
      <point x="883.0" y="1122.97014925"/>
    </contour>
    <contour>
      <point x="487" y="37" type="qcurve" smooth="yes"/>
      <point x="647.447761194" y="37.0"/>
      <point x="805.0" y="395.298507463"/>
      <point x="805" y="655" type="qcurve" smooth="yes"/>
      <point x="805" y="815" type="line" smooth="yes"/>
      <point x="805.0" y="1073.20895522"/>
      <point x="647.447761194" y="1438.0"/>
      <point x="487" y="1438" type="qcurve" smooth="yes"/>
      <point x="326.552238806" y="1438.0"/>
      <point x="170.0" y="1077.20895522"/>
      <point x="170" y="819" type="qcurve" smooth="yes"/>
      <point x="170" y="659" type="line" smooth="yes"/>
      <point x="170.0" y="399.298507463"/>
      <point x="326.552238806" y="37.0"/>
    </contour>
  </outline>
</glyph>
<glyph name="Q" format="1">
  <advance width="974.848"/>
  <unicode hex="0051"/>
  <outline>
    <contour>
      <point x="950" y="-125" type="qcurve"/>
      <point x="950" y="-193" type="line"/>
      <point x="935.074626866" y="-198.970149254"/>
      <point x="900.432835821" y="-203.0"/>
      <point x="887" y="-203" type="qcurve" smooth="yes"/>
      <point x="827.298507463" y="-203.0"/>
      <point x="753.059701493" y="-151.641791045"/>
      <point x="715" y="-80" type="qcurve" smooth="yes"/>
      <point x="657" y="27" type="line"/>
      <point x="620.432835821" y="0.880597014925"/>
      <point x="534.76119403" y="-25.0"/>
      <point x="487" y="-25" type="qcurve" smooth="yes"/>
      <point x="297.447761194" y="-25.0"/>
      <point x="92.0" y="350.28358209"/>
      <point x="92" y="657" type="qcurve" smooth="yes"/>
      <point x="92" y="813" type="line" smooth="yes"/>
      <point x="92.0" y="1120.46268657"/>
      <point x="297.447761194" y="1499.0"/>
      <point x="487" y="1499" type="qcurve" smooth="yes"/>
      <point x="676.552238806" y="1499.0"/>
      <point x="883.0" y="1122.97014925"/>
      <point x="883" y="817" type="qcurve" smooth="yes"/>
      <point x="883" y="662" type="line" smooth="yes"/>
      <point x="883.0" y="461.253731343"/>
      <point x="794.074626866" y="153.074626866"/>
      <point x="709" y="68" type="qcurve"/>
      <point x="780" y="-57" type="line" smooth="yes"/>
      <point x="803.134328358" y="-97.2985074627"/>
      <point x="853.447761194" y="-135.0"/>
      <point x="893" y="-135" type="qcurve" smooth="yes"/>
      <point x="907.925373134" y="-135.0"/>
      <point x="935.074626866" y="-129.47761194"/>
    </contour>
    <contour>
      <point x="674" y="131" type="line"/>
      <point x="739.671641791" y="212.343283582"/>
      <point x="805.0" y="487.089552239"/>
      <point x="805" y="655" type="qcurve" smooth="yes"/>
      <point x="805" y="815" type="line" smooth="yes"/>
      <point x="805.0" y="1073.20895522"/>
      <point x="647.447761194" y="1438.0"/>
      <point x="487" y="1438" type="qcurve" smooth="yes"/>
      <point x="326.552238806" y="1438.0"/>
      <point x="170.0" y="1077.20895522"/>
      <point x="170" y="819" type="qcurve" smooth="yes"/>
      <point x="170" y="659" type="line" smooth="yes"/>
      <point x="170.0" y="399.298507463"/>
      <point x="326.552238806" y="37.0"/>
      <point x="487" y="37" type="qcurve" smooth="yes"/>
      <point x="527.298507463" y="37.0"/>
      <point x="597.895522388" y="60.8656716418"/>
      <point x="627" y="84" type="qcurve"/>
      <point x="465" y="385" type="line"/>
      <point x="514" y="416" type="line"/>
    </contour>
  </outline>
</glyph>
<glyph name="R" format="1">
  <advance width="948.224"/>
  <unicode hex="0052"/>
  <outline>
    <contour>
      <point x="518" y="684" type="qcurve"/>
      <point x="877" y="0" type="line"/>
      <point x="788" y="0" type="line"/>
      <point x="440" y="676" type="line"/>
      <point x="225" y="676" type="line"/>
      <point x="225" y="0" type="line"/>
      <point x="147" y="0" type="line"/>
      <point x="147" y="1475" type="line"/>
      <point x="426" y="1475" type="line" smooth="yes"/>
      <point x="626.0" y="1475.0"/>
      <point x="850.0" y="1274.01492537"/>
      <point x="850" y="1077" type="qcurve" smooth="yes"/>
      <point x="850.0" y="893.417910448"/>
      <point x="662.029850746" y="701.164179104"/>
    </contour>
    <contour>
      <point x="444" y="737" type="line" smooth="yes"/>
      <point x="599.970149254" y="737.0"/>
      <point x="772.0" y="897.626865672"/>
      <point x="772" y="1073" type="qcurve" smooth="yes"/>
      <point x="772.0" y="1240.91044776"/>
      <point x="600.925373134" y="1413.0"/>
      <point x="436" y="1413" type="qcurve" smooth="yes"/>
      <point x="225" y="1413" type="line"/>
      <point x="225" y="737" type="line"/>
    </contour>
  </outline>
</glyph>
<glyph name="U" format="1">
  <advance width="999.424"/>
  <unicode hex="0055"/>
  <outline>
    <contour>
      <point x="858" y="1475" type="line"/>
      <point x="858" y="444" type="line" smooth="yes"/>
      <point x="858.0" y="196.985074627"/>
      <point x="650.746268657" y="-25.0"/>
      <point x="500" y="-25" type="qcurve" smooth="yes"/>
      <point x="348.507462687" y="-25.0"/>
      <point x="139.0" y="196.985074627"/>
      <point x="139" y="444" type="qcurve" smooth="yes"/>
      <point x="139" y="1475" type="line"/>
      <point x="217" y="1475" type="line"/>
      <point x="217" y="444" type="line" smooth="yes"/>
      <point x="217.0" y="235.044776119"/>
      <point x="378.626865672" y="37.0"/>
      <point x="504" y="37" type="qcurve" smooth="yes"/>
      <point x="629.373134328" y="37.0"/>
      <point x="786.0" y="228.537313433"/>
      <point x="786" y="436" type="qcurve" smooth="yes"/>
      <point x="786" y="1475" type="line"/>
    </contour>
  </outline>
</glyph>
<glyph name="W" format="1">
  <advance width="1533.952"/>
  <unicode hex="0057"/>
  <outline>
    <contour>
      <point x="1403" y="1475" type="line"/>
      <point x="1479" y="1475" type="line"/>
      <point x="1161" y="-12" type="line"/>
      <point x="1061" y="-12" type="line"/>
      <point x="774" y="1389" type="line"/>
      <point x="760" y="1389" type="line"/>
      <point x="473" y="-12" type="line"/>
      <point x="373" y="-12" type="line"/>
      <point x="55" y="1475" type="line"/>
      <point x="135" y="1475" type="line"/>
      <point x="418" y="80" type="line"/>
      <point x="430" y="80" type="line"/>
      <point x="709" y="1475" type="line"/>
      <point x="827" y="1475" type="line"/>
      <point x="1108" y="80" type="line"/>
      <point x="1120" y="80" type="line"/>
    </contour>
  </outline>
</glyph>
<glyph name="Y" format="1">
  <advance width="983.04"/>
  <unicode hex="0059"/>
  <outline>
    <contour>
      <point x="868" y="1475" type="line"/>
      <point x="950" y="1475" type="line"/>
      <point x="530" y="565" type="line"/>
      <point x="530" y="0" type="line"/>
      <point x="453" y="0" type="line"/>
      <point x="453" y="565" type="line"/>
      <point x="33" y="1475" type="line"/>
      <point x="117" y="1475" type="line"/>
      <point x="494" y="635" type="line"/>
    </contour>
  </outline>
</glyph>
<glyph name="backslash" format="1">
  <advance width="579.584"/>
  <unicode hex="005C"/>
  <outline>
    <contour>
      <point x="96" y="1505" type="line"/>
      <point x="596" y="-195" type="line"/>
      <point x="528" y="-195" type="line"/>
      <point x="29" y="1505" type="line"/>
    </contour>
  </outline>
</glyph>
<glyph name="underscore" format="1">
  <advance width="802.816"/>
  <unicode hex="005F"/>
  <outline>
    <contour>
      <point x="809" y="-106" type="line"/>
      <point x="809" y="-166" type="line"/>
      <point x="-6" y="-166" type="line"/>
      <point x="-6" y="-106" type="line"/>
    </contour>
  </outline>
</glyph>
<glyph name="grave" format="1">
  <advance width="798.72"/>
  <unicode hex="0060"/>
  <outline>
    <contour>
      <point x="362" y="1423" type="line"/>
      <point x="516" y="1182" type="line"/>
      <point x="469" y="1182" type="line"/>
      <point x="256" y="1423" type="line"/>
    </contour>
  </outline>
</glyph>
<glyph name="a" format="1">
  <advance width="755.712"/>
  <unicode hex="0061"/>
  <outline>
    <contour>
      <point x="711" y="55" type="qcurve"/>
      <point x="711" y="-8" type="line"/>
      <point x="643.835820896" y="-8.0"/>
      <point x="554.970149254" y="88.6268656716"/>
      <point x="549" y="164" type="qcurve"/>
      <point x="541" y="164" type="line"/>
      <point x="499.208955224" y="93.8507462687"/>
      <point x="373.567164179" y="-16.0"/>
      <point x="287" y="-16" type="qcurve" smooth="yes"/>
      <point x="190.731343284" y="-16.0"/>
      <point x="59.0" y="124.119402985"/>
      <point x="59" y="248" type="qcurve" smooth="yes"/>
      <point x="59.0" y="392.776119403"/>
      <point x="302.223880597" y="606.343283582"/>
      <point x="547" y="625" type="qcurve"/>
      <point x="547" y="791" type="line" smooth="yes"/>
      <point x="547.0" y="899.208955224"/>
      <point x="474.880597015" y="999.0"/>
      <point x="401" y="999" type="qcurve" smooth="yes"/>
      <point x="335.328358209" y="999.0"/>
      <point x="221.671641791" y="948.791044776"/>
      <point x="156" y="907" type="qcurve"/>
      <point x="127" y="963" type="line"/>
      <point x="188.194029851" y="1002.55223881"/>
      <point x="325.194029851" y="1059.0"/>
      <point x="414" y="1059" type="qcurve" smooth="yes"/>
      <point x="520.71641791" y="1059.0"/>
      <point x="618.0" y="925.552238806"/>
      <point x="618" y="786" type="qcurve" smooth="yes"/>
      <point x="618" y="197" type="line" smooth="yes"/>
      <point x="618.0" y="134.313432836"/>
      <point x="664.731343284" y="57.9850746269"/>
    </contour>
    <contour>
      <point x="305" y="43" type="qcurve" smooth="yes"/>
      <point x="370.671641791" y="43.0"/>
      <point x="496.253731343" y="139.52238806"/>
      <point x="547" y="244" type="qcurve"/>
      <point x="547" y="571" type="line"/>
      <point x="323.865671642" y="553.089552239"/>
      <point x="131.0" y="364.686567164"/>
      <point x="131" y="252" type="qcurve" smooth="yes"/>
      <point x="131.0" y="157.223880597"/>
      <point x="227.388059701" y="43.0"/>
    </contour>
  </outline>
</glyph>
<glyph name="c" format="1">
  <advance width="692.224"/>
  <unicode hex="0063"/>
  <outline>
    <contour>
      <point x="580" y="260" type="qcurve"/>
      <point x="635" y="236" type="line"/>
      <point x="604.402985075" y="127.044776119"/>
      <point x="472.76119403" y="-20.0"/>
      <point x="375" y="-20" type="qcurve" smooth="yes"/>
      <point x="239.179104478" y="-20.0"/>
      <point x="76.0" y="251.328358209"/>
      <point x="76" y="467" type="qcurve" smooth="yes"/>
      <point x="76" y="578" type="line" smooth="yes"/>
      <point x="76.0" y="789.940298507"/>
      <point x="239.656716418" y="1069.0"/>
      <point x="371" y="1069" type="qcurve" smooth="yes"/>
      <point x="479.208955224" y="1069.0"/>
      <point x="600.402985075" y="916.701492537"/>
      <point x="631" y="807" type="qcurve"/>
      <point x="569" y="784" type="line"/>
      <point x="539.895522388" y="878.776119403"/>
      <point x="450.582089552" y="1010.0"/>
      <point x="367" y="1010" type="qcurve" smooth="yes"/>
      <point x="267.0" y="1010.0"/>
      <point x="147.0" y="763.343283582"/>
      <point x="147" y="582" type="qcurve" smooth="yes"/>
      <point x="147" y="469" type="line" smooth="yes"/>
      <point x="147.0" y="286.910447761"/>
      <point x="272.28358209" y="39.0"/>
      <point x="379" y="39" type="qcurve" smooth="yes"/>
      <point x="449.149253731" y="39.0"/>
      <point x="552.388059701" y="160.746268657"/>
    </contour>
  </outline>
</glyph>
<glyph name="e" format="1">
  <advance width="714.752"/>
  <unicode hex="0065"/>
  <outline>
    <contour>
      <point x="645" y="520" type="qcurve" smooth="yes"/>
      <point x="645" y="516" type="line"/>
      <point x="145" y="516" type="line"/>
      <point x="145" y="469" type="line" smooth="yes"/>
      <point x="145.0" y="269.0"/>
      <point x="277.805970149" y="41.0"/>
      <point x="389" y="41" type="qcurve" smooth="yes"/>
      <point x="451.686567164" y="41.0"/>
      <point x="553.462686567" y="102.776119403"/>
      <point x="596" y="158" type="qcurve"/>
      <point x="637" y="117" type="line"/>
      <point x="590.731343284" y="57.2985074627"/>
      <point x="466.850746269" y="-20.0"/>
      <point x="387" y="-20" type="qcurve" smooth="yes"/>
      <point x="251.179104478" y="-20.0"/>
      <point x="76.0" y="233.417910448"/>
      <point x="76" y="467" type="qcurve" smooth="yes"/>
      <point x="76" y="578" type="line" smooth="yes"/>
      <point x="76.0" y="794.417910448"/>
      <point x="237.149253731" y="1069.0"/>
      <point x="367" y="1069" type="qcurve" smooth="yes"/>
      <point x="495.358208955" y="1069.0"/>
      <point x="645.0" y="766.268656716"/>
    </contour>
    <contour>
      <point x="145" y="573" type="line"/>
      <point x="573" y="573" type="line"/>
      <point x="568.52238806" y="753.597014925"/>
      <point x="458.044776119" y="1014.0"/>
      <point x="367" y="1014" type="qcurve" smooth="yes"/>
      <point x="261.029850746" y="1014.0"/>
      <point x="145.0" y="763.343283582"/>
      <point x="145" y="582" type="qcurve" smooth="yes"/>
    </contour>
  </outline>
</glyph>
<glyph name="i" format="1">
  <advance width="346.112"/>
  <unicode hex="0069"/>
  <outline>
    <contour>
      <point x="209" y="1049" type="line"/>
      <point x="209" y="0" type="line"/>
      <point x="137" y="0" type="line"/>
      <point x="137" y="1049" type="line"/>
    </contour>
    <contour>
      <point x="219" y="1475" type="line"/>
      <point x="219" y="1337" type="line"/>
      <point x="127" y="1337" type="line"/>
      <point x="127" y="1475" type="line"/>
    </contour>
  </outline>
</glyph>
<glyph name="j" format="1">
  <advance width="346.112"/>
  <unicode hex="006A"/>
  <outline>
    <contour>
      <point x="209" y="1049" type="line"/>
      <point x="209" y="-184" type="line" smooth="yes"/>
      <point x="209.0" y="-288.47761194"/>
      <point x="119.597014925" y="-389.0"/>
      <point x="39" y="-389" type="qcurve" smooth="yes"/>
      <point x="9.89552238806" y="-389.0"/>
      <point x="-29.0895522388" y="-382.462686567"/>
      <point x="-47" y="-375" type="qcurve"/>
      <point x="-47" y="-311" type="line"/>
      <point x="-30.5820895522" y="-320.701492537"/>
      <point x="11.8955223881" y="-330.0"/>
      <point x="41" y="-330" type="qcurve" smooth="yes"/>
      <point x="82.0447761194" y="-330.0"/>
      <point x="137.0" y="-265.149253731"/>
      <point x="137" y="-195" type="qcurve" smooth="yes"/>
      <point x="137" y="1049" type="line"/>
    </contour>
    <contour>
      <point x="219" y="1475" type="line"/>
      <point x="219" y="1337" type="line"/>
      <point x="127" y="1337" type="line"/>
      <point x="127" y="1475" type="line"/>
    </contour>
  </outline>
</glyph>
<glyph name="k" format="1">
  <advance width="704.512"/>
  <unicode hex="006B"/>
  <outline>
    <contour>
      <point x="309" y="535" type="line"/>
      <point x="694" y="0" type="line"/>
      <point x="606" y="0" type="line"/>
      <point x="229" y="526" type="line"/>
      <point x="229" y="532" type="line"/>
      <point x="600" y="1049" type="line"/>
      <point x="682" y="1049" type="line"/>
    </contour>
    <contour>
      <point x="195" y="1561" type="line"/>
      <point x="195" y="0" type="line"/>
      <point x="123" y="0" type="line"/>
      <point x="123" y="1520" type="line"/>
    </contour>
  </outline>
</glyph>
<glyph name="p" format="1">
  <advance width="806.912"/>
  <unicode hex="0070"/>
  <outline>
    <contour>
      <point x="731" y="551" type="qcurve" smooth="yes"/>
      <point x="731" y="500" type="line" smooth="yes"/>
      <point x="731.0" y="255.223880597"/>
      <point x="560.701492537" y="-20.0"/>
      <point x="451" y="-20" type="qcurve" smooth="yes"/>
      <point x="372.641791045" y="-20.0"/>
      <point x="247.537313433" y="109.686567164"/>
      <point x="205" y="197" type="qcurve"/>
      <point x="195" y="197" type="line"/>
      <point x="195" y="-385" type="line"/>
      <point x="123" y="-385" type="line"/>
      <point x="123" y="1026" type="line"/>
      <point x="195" y="1067" type="line"/>
      <point x="195" y="844" type="line"/>
      <point x="205" y="844" type="line"/>
      <point x="250.52238806" y="935.791044776"/>
      <point x="372.671641791" y="1069.0"/>
      <point x="457" y="1069" type="qcurve" smooth="yes"/>
      <point x="569.686567164" y="1069.0"/>
      <point x="731.0" y="798.76119403"/>
    </contour>
    <contour>
      <point x="446" y="43" type="qcurve" smooth="yes"/>
      <point x="536.298507463" y="43.0"/>
      <point x="659.0" y="289.910447761"/>
      <point x="659" y="522" type="qcurve" smooth="yes"/>
      <point x="659.0" y="768.268656716"/>
      <point x="531.791044776" y="1006.0"/>
      <point x="440" y="1006" type="qcurve" smooth="yes"/>
      <point x="339.253731343" y="1006.0"/>
      <point x="184.0" y="707.582089552"/>
      <point x="184" y="524" type="qcurve" smooth="yes"/>
      <point x="184.0" y="342.656716418"/>
      <point x="339.28358209" y="43.0"/>
    </contour>
  </outline>
</glyph>
<glyph name="q" format="1">
  <advance width="806.912"/>
  <unicode hex="0071"/>
  <outline>
    <contour>
      <point x="684" y="1026" type="line"/>
      <point x="684" y="-385" type="line"/>
      <point x="612" y="-385" type="line"/>
      <point x="612" y="205" type="line"/>
      <point x="602" y="205" type="line"/>
      <point x="556.47761194" y="113.208955224"/>
      <point x="434.328358209" y="-20.0"/>
      <point x="350" y="-20" type="qcurve" smooth="yes"/>
      <point x="237.313432836" y="-20.0"/>
      <point x="76.0" y="250.23880597"/>
      <point x="76" y="498" type="qcurve" smooth="yes"/>
      <point x="76" y="549" type="line" smooth="yes"/>
      <point x="76.0" y="793.776119403"/>
      <point x="246.298507463" y="1069.0"/>
      <point x="356" y="1069" type="qcurve" smooth="yes"/>
      <point x="434.358208955" y="1069.0"/>
      <point x="559.462686567" y="939.313432836"/>
      <point x="602" y="852" type="qcurve"/>
      <point x="612" y="852" type="line"/>
      <point x="612" y="1067" type="line"/>
    </contour>
    <contour>
      <point x="367" y="43" type="qcurve" smooth="yes"/>
      <point x="467.746268657" y="43.0"/>
      <point x="623.0" y="341.164179104"/>
      <point x="623" y="524" type="qcurve" smooth="yes"/>
      <point x="623.0" y="706.089552239"/>
      <point x="467.462686567" y="1006.0"/>
      <point x="360" y="1006" type="qcurve" smooth="yes"/>
      <point x="270.447761194" y="1006.0"/>
      <point x="147.0" y="758.835820896"/>
      <point x="147" y="526" type="qcurve" smooth="yes"/>
      <point x="147.0" y="280.47761194"/>
      <point x="275.208955224" y="43.0"/>
    </contour>
  </outline>
</glyph>
<glyph name="x" format="1">
  <advance width="733.184"/>
  <unicode hex="0078"/>
  <outline>
    <contour>
      <point x="399" y="537" type="line"/>
      <point x="678" y="0" type="line"/>
      <point x="598" y="0" type="line"/>
      <point x="365" y="465" type="line"/>
      <point x="127" y="0" type="line"/>
      <point x="55" y="0" type="line"/>
      <point x="334" y="530" type="line"/>
      <point x="66" y="1049" type="line"/>
      <point x="145" y="1049" type="line"/>
      <point x="369" y="602" type="line"/>
      <point x="596" y="1049" type="line"/>
      <point x="668" y="1049" type="line"/>
    </contour>
  </outline>
</glyph>
<glyph name="y" format="1">
  <advance width="700.416"/>
  <unicode hex="0079"/>
  <outline>
    <contour>
      <point x="586" y="1049" type="line"/>
      <point x="653" y="1049" type="line"/>
      <point x="340" y="-178" type="line" smooth="yes"/>
      <point x="310.895522388" y="-291.432835821"/>
      <point x="209.865671642" y="-389.0"/>
      <point x="133" y="-389" type="qcurve" smooth="yes"/>
      <point x="91.9552238806" y="-389.0"/>
      <point x="41.1343283582" y="-372.686567164"/>
      <point x="18" y="-360" type="qcurve"/>
      <point x="18" y="-285" type="line"/>
      <point x="53" y="-285" type="line"/>
      <point x="64.1940298507" y="-305.895522388"/>
      <point x="104.462686567" y="-334.0"/>
      <point x="147" y="-334" type="qcurve" smooth="yes"/>
      <point x="190.28358209" y="-334.0"/>
      <point x="258.850746269" y="-260.865671642"/>
      <point x="279" y="-184" type="qcurve" smooth="yes"/>
      <point x="319" y="-31" type="line"/>
      <point x="47" y="1049" type="line"/>
      <point x="119" y="1049" type="line"/>
      <point x="352" y="76" type="line"/>
    </contour>
  </outline>
</glyph>
<glyph name="braceleft" format="1">
  <advance width="583.68"/>
  <unicode hex="007B"/>
  <outline>
    <contour>
      <point x="526" y="-106" type="line"/>
      <point x="526" y="-164" type="line"/>
      <point x="449" y="-164" type="line" smooth="yes"/>
      <point x="334.074626866" y="-164.0"/>
      <point x="221.0" y="-37.3731343284"/>
      <point x="221" y="88" type="qcurve" smooth="yes"/>
      <point x="221.0" y="159.641791045"/>
      <point x="252.0" y="353.313432836"/>
      <point x="252" y="416" type="qcurve" smooth="yes"/>
      <point x="252.0" y="524.208955224"/>
      <point x="131.298507463" y="625.0"/>
      <point x="41" y="625" type="qcurve"/>
      <point x="41" y="686" type="line"/>
      <point x="131.298507463" y="686.0"/>
      <point x="252.0" y="786.791044776"/>
      <point x="252" y="895" type="qcurve" smooth="yes"/>
      <point x="252.0" y="957.686567164"/>
      <point x="221.0" y="1150.6119403"/>
      <point x="221" y="1223" type="qcurve" smooth="yes"/>
      <point x="221.0" y="1348.37313433"/>
      <point x="334.074626866" y="1475.0"/>
      <point x="449" y="1475" type="qcurve" smooth="yes"/>
      <point x="526" y="1475" type="line"/>
      <point x="526" y="1417" type="line"/>
      <point x="449" y="1417" type="line" smooth="yes"/>
      <point x="369.149253731" y="1417.0"/>
      <point x="295.0" y="1327.29850746"/>
      <point x="295" y="1237" type="qcurve" smooth="yes"/>
      <point x="295.0" y="1169.8358209"/>
      <point x="326.0" y="991.865671642"/>
      <point x="326" y="915" type="qcurve" smooth="yes"/>
      <point x="326.0" y="797.835820896"/>
      <point x="217.164179104" y="692.358208955"/>
      <point x="150" y="664" type="qcurve"/>
      <point x="150" y="647" type="line"/>
      <point x="217.164179104" y="617.895522388"/>
      <point x="326.0" y="512.910447761"/>
      <point x="326" y="395" type="qcurve" smooth="yes"/>
      <point x="326.0" y="318.880597015"/>
      <point x="295.0" y="141.164179104"/>
      <point x="295" y="74" type="qcurve" smooth="yes"/>
      <point x="295.0" y="-16.2985074627"/>
      <point x="369.149253731" y="-106.0"/>
      <point x="449" y="-106" type="qcurve" smooth="yes"/>
    </contour>
  </outline>
</glyph>
<glyph name="cent" format="1">
  <advance width="706.56"/>
  <unicode hex="00A2"/>
  <outline>
    <contour>
      <point x="580" y="260" type="qcurve"/>
      <point x="635" y="236" type="line"/>
      <point x="604.402985075" y="127.044776119"/>
      <point x="472.76119403" y="-20.0"/>
      <point x="375" y="-20" type="qcurve" smooth="yes"/>
      <point x="345.895522388" y="-20.0"/>
      <point x="292.626865672" y="-7.94029850746"/>
      <point x="268" y="4" type="qcurve"/>
      <point x="213" y="-195" type="line"/>
      <point x="156" y="-195" type="line"/>
      <point x="221" y="37" type="line"/>
      <point x="153.835820896" y="95.2089552239"/>
      <point x="76.0" y="319.985074627"/>
      <point x="76" y="467" type="qcurve" smooth="yes"/>
      <point x="76" y="598" type="line" smooth="yes"/>
      <point x="76.0" y="810.686567164"/>
      <point x="240.134328358" y="1069.0"/>
      <point x="367" y="1069" type="qcurve" smooth="yes"/>
      <point x="406.552238806" y="1069.0"/>
      <point x="476.388059701" y="1048.14925373"/>
      <point x="504" y="1028" type="qcurve"/>
      <point x="565" y="1243" type="line"/>
      <point x="623" y="1243" type="line"/>
      <point x="287" y="68" type="line"/>
      <point x="307.895522388" y="53.8208955224"/>
      <point x="354.373134328" y="39.0"/>
      <point x="379" y="39" type="qcurve" smooth="yes"/>
      <point x="449.149253731" y="39.0"/>
      <point x="552.388059701" y="160.746268657"/>
    </contour>
    <contour>
      <point x="242" y="111" type="qcurve"/>
      <point x="485" y="963" type="line"/>
      <point x="461.119402985" y="983.895522388"/>
      <point x="400.805970149" y="1010.0"/>
      <point x="362" y="1010" type="qcurve" smooth="yes"/>
      <point x="267.970149254" y="1010.0"/>
      <point x="147.0" y="784.089552239"/>
      <point x="147" y="602" type="qcurve" smooth="yes"/>
      <point x="147" y="469" type="line" smooth="yes"/>
      <point x="147.0" y="355.567164179"/>
      <point x="197.223880597" y="166.970149254"/>
    </contour>
  </outline>
</glyph>
<glyph name="section" format="1">
  <advance width="913.408"/>
  <unicode hex="00A7"/>
  <outline>
    <contour>
      <point x="528" y="1016" type="qcurve" smooth="yes"/>
      <point x="692.179104478" y="947.343283582"/>
      <point x="844.0" y="791.731343284"/>
      <point x="844" y="688" type="qcurve" smooth="yes"/>
      <point x="844.0" y="584.268656716"/>
      <point x="689.865671642" y="446.0"/>
      <point x="563" y="446" type="qcurve"/>
      <point x="563" y="434" type="line"/>
      <point x="639.865671642" y="394.447761194"/>
      <point x="737.0" y="278.582089552"/>
      <point x="737" y="195" type="qcurve" smooth="yes"/>
      <point x="737.0" y="98.7313432836"/>
      <point x="586.402985075" y="-25.0"/>
      <point x="467" y="-25" type="qcurve" smooth="yes"/>
      <point x="382.671641791" y="-25.0"/>
      <point x="246.626865672" y="21.2537313433"/>
      <point x="172" y="72" type="qcurve"/>
      <point x="207" y="127" type="line"/>
      <point x="271.179104478" y="79.2388059701"/>
      <point x="395.388059701" y="35.0"/>
      <point x="473" y="35" type="qcurve" smooth="yes"/>
      <point x="564.791044776" y="35.0"/>
      <point x="666.0" y="121.343283582"/>
      <point x="666" y="190" type="qcurve" smooth="yes"/>
      <point x="666.0" y="265.373134328"/>
      <point x="554.402985075" y="386.611940299"/>
      <point x="385" y="459" type="qcurve" smooth="yes"/>
      <point x="221.567164179" y="527.656716418"/>
      <point x="70.0" y="682.268656716"/>
      <point x="70" y="786" type="qcurve" smooth="yes"/>
      <point x="70.0" y="890.47761194"/>
      <point x="223.134328358" y="1028.0"/>
      <point x="350" y="1028" type="qcurve"/>
      <point x="350" y="1040" type="line"/>
      <point x="273.880597015" y="1080.29850746"/>
      <point x="176.0" y="1195.67164179"/>
      <point x="176" y="1280" type="qcurve" smooth="yes"/>
      <point x="176.0" y="1376.26865672"/>
      <point x="327.343283582" y="1499.0"/>
      <point x="446" y="1499" type="qcurve" smooth="yes"/>
      <point x="530.328358209" y="1499.0"/>
      <point x="666.373134328" y="1453.0"/>
      <point x="741" y="1403" type="qcurve"/>
      <point x="707" y="1348" type="line"/>
      <point x="642.820895522" y="1395.01492537"/>
      <point x="518.358208955" y="1440.0"/>
      <point x="440" y="1440" type="qcurve" smooth="yes"/>
      <point x="348.208955224" y="1440.0"/>
      <point x="248.0" y="1352.65671642"/>
      <point x="248" y="1284" type="qcurve" smooth="yes"/>
      <point x="248.0" y="1209.37313433"/>
      <point x="358.597014925" y="1087.64179104"/>
    </contour>
    <contour>
      <point x="565" y="498" type="qcurve" smooth="yes"/>
      <point x="650.820895522" y="498.0"/>
      <point x="770.0" y="593.701492537"/>
      <point x="770" y="684" type="qcurve" smooth="yes"/>
      <point x="770.0" y="754.149253731"/>
      <point x="676.343283582" y="879.791044776"/>
      <point x="545" y="938" type="qcurve" smooth="yes"/>
      <point x="491.268656716" y="961.134328358"/>
      <point x="398.746268657" y="977.0"/>
      <point x="348" y="977" type="qcurve" smooth="yes"/>
      <point x="262.179104478" y="977.0"/>
      <point x="143.0" y="880.552238806"/>
      <point x="143" y="791" type="qcurve" smooth="yes"/>
      <point x="143.0" y="720.104477612"/>
      <point x="237.656716418" y="594.462686567"/>
      <point x="369" y="537" type="qcurve" smooth="yes"/>
      <point x="421.985074627" y="513.865671642"/>
      <point x="515.0" y="498.0"/>
    </contour>
  </outline>
</glyph>
<glyph name="ordfeminine" format="1">
  <advance width="585.728"/>
  <unicode hex="00AA"/>
  <outline>
    <contour>
      <point x="512" y="991" type="qcurve"/>
      <point x="512" y="946" type="line"/>
      <point x="464.985074627" y="944.507462687"/>
      <point x="409.208955224" y="986.47761194"/>
      <point x="401" y="1032" type="qcurve"/>
      <point x="401" y="1034" type="line"/>
      <point x="362.940298507" y="986.985074627"/>
      <point x="281.52238806" y="942.0"/>
      <point x="236" y="942" type="qcurve" smooth="yes"/>
      <point x="176.298507463" y="942.0"/>
      <point x="86.0" y="1015.35820896"/>
      <point x="86" y="1087" type="qcurve" smooth="yes"/>
      <point x="86.0" y="1165.35820896"/>
      <point x="242.52238806" y="1270.0"/>
      <point x="397" y="1270" type="qcurve"/>
      <point x="397" y="1325" type="line" smooth="yes"/>
      <point x="397.0" y="1380.2238806"/>
      <point x="357.268656716" y="1432.0"/>
      <point x="311" y="1432" type="qcurve" smooth="yes"/>
      <point x="269.955223881" y="1432.0"/>
      <point x="189.552238806" y="1406.62686567"/>
      <point x="150" y="1382" type="qcurve"/>
      <point x="129" y="1427" type="line"/>
      <point x="170.044776119" y="1450.13432836"/>
      <point x="261.029850746" y="1485.0"/>
      <point x="317" y="1485" type="qcurve" smooth="yes"/>
      <point x="389.388059701" y="1485.0"/>
      <point x="457.0" y="1408.34328358"/>
      <point x="457" y="1327" type="qcurve" smooth="yes"/>
      <point x="457" y="1061" type="line" smooth="yes"/>
      <point x="457.0" y="1031.89552239"/>
      <point x="482.895522388" y="992.492537313"/>
    </contour>
    <contour>
      <point x="240" y="993" type="qcurve" smooth="yes"/>
      <point x="284.029850746" y="993.0"/>
      <point x="364.910447761" y="1044.23880597"/>
      <point x="397" y="1092" type="qcurve"/>
      <point x="397" y="1225" type="line"/>
      <point x="264.164179104" y="1227.98507463"/>
      <point x="147.0" y="1142.2238806"/>
      <point x="147" y="1087" type="qcurve" smooth="yes"/>
      <point x="147.0" y="1042.97014925"/>
      <point x="198.208955224" y="993.0"/>
    </contour>
    <contour>
      <point x="492" y="825" type="line"/>
      <point x="492" y="774" type="line"/>
      <point x="90" y="774" type="line"/>
      <point x="90" y="825" type="line"/>
    </contour>
  </outline>
</glyph>
<glyph name="guillemotleft" format="1">
  <advance width="696.32"/>
  <unicode hex="00AB"/>
  <outline>
    <contour>
      <point x="137" y="524" type="line"/>
      <point x="346" y="164" type="line"/>
      <point x="291" y="164" type="line"/>
      <point x="41" y="524" type="line"/>
      <point x="291" y="885" type="line"/>
      <point x="346" y="885" type="line"/>
    </contour>
    <contour>
      <point x="424" y="524" type="line"/>
      <point x="633" y="164" type="line"/>
      <point x="578" y="164" type="line"/>
      <point x="328" y="524" type="line"/>
      <point x="578" y="885" type="line"/>
      <point x="633" y="885" type="line"/>
    </contour>
  </outline>
</glyph>
<glyph name="uni00AE" format="1">
  <advance width="1349.632"/>
  <unicode hex="00AE"/>
  <outline>
    <contour>
      <point x="733" y="705" type="qcurve"/>
      <point x="932" y="336" type="line"/>
      <point x="850" y="336" type="line"/>
      <point x="657" y="698" type="line"/>
      <point x="561" y="698" type="line"/>
      <point x="561" y="336" type="line"/>
      <point x="492" y="336" type="line"/>
      <point x="492" y="1157" type="line"/>
      <point x="670" y="1157" type="line" smooth="yes"/>
      <point x="776.71641791" y="1157.0"/>
      <point x="909.0" y="1041.19402985"/>
      <point x="909" y="930" type="qcurve" smooth="yes"/>
      <point x="909.0" y="829.253731343"/>
      <point x="809.865671642" y="719.925373134"/>
    </contour>
    <contour>
      <point x="676" y="1499" type="qcurve" smooth="yes"/>
      <point x="937.194029851" y="1499.0"/>
      <point x="1274.0" y="1064.6119403"/>
      <point x="1274" y="737" type="qcurve" smooth="yes"/>
      <point x="1274.0" y="410.134328358"/>
      <point x="937.194029851" y="-25.0"/>
      <point x="676" y="-25" type="qcurve" smooth="yes"/>
      <point x="414.805970149" y="-25.0"/>
      <point x="78.0" y="410.134328358"/>
      <point x="78" y="737" type="qcurve" smooth="yes"/>
      <point x="78.0" y="1064.6119403"/>
      <point x="414.805970149" y="1499.0"/>
    </contour>
    <contour>
      <point x="676" y="25" type="qcurve" smooth="yes"/>
      <point x="915.552238806" y="25.0"/>
      <point x="1217.0" y="430.28358209"/>
      <point x="1217" y="737" type="qcurve" smooth="yes"/>
      <point x="1217.0" y="1044.46268657"/>
      <point x="915.552238806" y="1450.0"/>
      <point x="676" y="1450" type="qcurve" smooth="yes"/>
      <point x="434.208955224" y="1450.0"/>
      <point x="135.0" y="1044.46268657"/>
      <point x="135" y="737" type="qcurve" smooth="yes"/>
      <point x="135.0" y="430.28358209"/>
      <point x="434.208955224" y="25.0"/>
    </contour>
    <contour>
      <point x="670" y="760" type="line" smooth="yes"/>
      <point x="749.104477612" y="760.0"/>
      <point x="836.0" y="837.701492537"/>
      <point x="836" y="928" type="qcurve" smooth="yes"/>
      <point x="836.0" y="1011.58208955"/>
      <point x="748.089552239" y="1096.0"/>
      <point x="666" y="1096" type="qcurve" smooth="yes"/>
      <point x="561" y="1096" type="line"/>
      <point x="561" y="760" type="line"/>
    </contour>
  </outline>
</glyph>
<glyph name="degree" format="1">
  <advance width="643.072"/>
  <unicode hex="00B0"/>
  <outline>
    <contour>
      <point x="322" y="1483" type="qcurve" smooth="yes"/>
      <point x="421.253731343" y="1483.0"/>
      <point x="555.0" y="1352.25373134"/>
      <point x="555" y="1253" type="qcurve" smooth="yes"/>
      <point x="555.0" y="1153.74626866"/>
      <point x="421.253731343" y="1024.0"/>
      <point x="322" y="1024" type="qcurve" smooth="yes"/>
      <point x="222.0" y="1024.0"/>
      <point x="88.0" y="1153.74626866"/>
      <point x="88" y="1253" type="qcurve" smooth="yes"/>
      <point x="88.0" y="1352.25373134"/>
      <point x="222.0" y="1483.0"/>
    </contour>
    <contour>
      <point x="322" y="1081" type="qcurve" smooth="yes"/>
      <point x="393.641791045" y="1081.0"/>
      <point x="489.0" y="1178.37313433"/>
      <point x="489" y="1253" type="qcurve" smooth="yes"/>
      <point x="489.0" y="1328.37313433"/>
      <point x="393.641791045" y="1425.0"/>
      <point x="322" y="1425" type="qcurve" smooth="yes"/>
      <point x="249.611940299" y="1425.0"/>
      <point x="154.0" y="1328.37313433"/>
      <point x="154" y="1253" type="qcurve" smooth="yes"/>
      <point x="154.0" y="1178.37313433"/>
      <point x="249.611940299" y="1081.0"/>
    </contour>
  </outline>
</glyph>
<glyph name="periodcentered" format="1">
  <advance width="286.72"/>
  <unicode hex="00B7"/>
  <outline>
    <contour>
      <point x="143" y="635" type="qcurve" smooth="yes"/>
      <point x="172.104477612" y="635.0"/>
      <point x="209.0" y="598.104477612"/>
      <point x="209" y="569" type="qcurve" smooth="yes"/>
      <point x="209.0" y="539.895522388"/>
      <point x="172.104477612" y="504.0"/>
      <point x="143" y="504" type="qcurve" smooth="yes"/>
      <point x="113.895522388" y="504.0"/>
      <point x="78.0" y="539.895522388"/>
      <point x="78" y="569" type="qcurve" smooth="yes"/>
      <point x="78.0" y="598.104477612"/>
      <point x="113.895522388" y="635.0"/>
    </contour>
  </outline>
</glyph>
<glyph name="cedilla" format="1">
  <advance width="798.72"/>
  <unicode hex="00B8"/>
  <outline>
    <contour>
      <point x="473" y="-74" type="qcurve" smooth="yes"/>
      <point x="523.746268657" y="-74.0"/>
      <point x="582.0" y="-121.731343284"/>
      <point x="582" y="-168" type="qcurve" smooth="yes"/>
      <point x="582.0" y="-239.641791045"/>
      <point x="413.52238806" y="-309.985074627"/>
      <point x="268" y="-307" type="qcurve"/>
      <point x="268" y="-272" type="line"/>
      <point x="399.343283582" y="-269.014925373"/>
      <point x="510.0" y="-217.044776119"/>
      <point x="510" y="-176" type="qcurve" smooth="yes"/>
      <point x="510.0" y="-152.865671642"/>
      <point x="476.597014925" y="-125.0"/>
      <point x="446" y="-125" type="qcurve" smooth="yes"/>
      <point x="420.626865672" y="-125.0"/>
      <point x="378.149253731" y="-134.552238806"/>
      <point x="358" y="-145" type="qcurve"/>
      <point x="328" y="-125" type="line"/>
      <point x="397" y="0" type="line"/>
      <point x="451" y="0" type="line"/>
      <point x="399" y="-90" type="line"/>
      <point x="417.656716418" y="-82.5373134328"/>
      <point x="451.358208955" y="-74.0"/>
    </contour>
  </outline>
</glyph>
<glyph name="ordmasculine" format="1">
  <advance width="569.344"/>
  <unicode hex="00BA"/>
  <outline>
    <contour>
      <point x="489" y="1217" type="qcurve" smooth="yes"/>
      <point x="489" y="1212" type="line" smooth="yes"/>
      <point x="489.0" y="1093.34328358"/>
      <point x="375.298507463" y="940.0"/>
      <point x="285" y="940" type="qcurve" smooth="yes"/>
      <point x="194.701492537" y="940.0"/>
      <point x="80.0" y="1093.34328358"/>
      <point x="80" y="1212" type="qcurve"/>
      <point x="78.5074626866" y="1213.49253731"/>
      <point x="78.5074626866" y="1214.76119403"/>
      <point x="80" y="1217" type="qcurve"/>
      <point x="80.0" y="1335.65671642"/>
      <point x="194.701492537" y="1489.0"/>
      <point x="285" y="1489" type="qcurve" smooth="yes"/>
      <point x="375.298507463" y="1489.0"/>
      <point x="489.0" y="1335.65671642"/>
    </contour>
    <contour>
      <point x="285" y="993" type="qcurve" smooth="yes"/>
      <point x="352.164179104" y="993.0"/>
      <point x="428.0" y="1116.71641791"/>
      <point x="428" y="1210" type="qcurve" smooth="yes"/>
      <point x="428" y="1214" type="line" smooth="yes"/>
      <point x="428.0" y="1307.28358209"/>
      <point x="352.164179104" y="1436.0"/>
      <point x="285" y="1436" type="qcurve" smooth="yes"/>
      <point x="217.835820896" y="1436.0"/>
      <point x="141.0" y="1311.53731343"/>
      <point x="141" y="1219" type="qcurve"/>
      <point x="139.507462687" y="1217.50746269"/>
      <point x="139.507462687" y="1216.23880597"/>
      <point x="141" y="1214" type="qcurve"/>
      <point x="141.0" y="1121.46268657"/>
      <point x="217.835820896" y="993.0"/>
    </contour>
    <contour>
      <point x="479" y="825" type="line"/>
      <point x="479" y="774" type="line"/>
      <point x="90" y="774" type="line"/>
      <point x="90" y="825" type="line"/>
    </contour>
  </outline>
</glyph>
<glyph name="guillemotright" format="1">
  <advance width="696.32"/>
  <unicode hex="00BB"/>
  <outline>
    <contour>
      <point x="119" y="885" type="line"/>
      <point x="369" y="524" type="line"/>
      <point x="119" y="164" type="line"/>
      <point x="63" y="164" type="line"/>
      <point x="272" y="524" type="line"/>
      <point x="63" y="885" type="line"/>
    </contour>
    <contour>
      <point x="406" y="885" type="line"/>
      <point x="655" y="524" type="line"/>
      <point x="406" y="164" type="line"/>
      <point x="350" y="164" type="line"/>
      <point x="559" y="524" type="line"/>
      <point x="350" y="885" type="line"/>
    </contour>
  </outline>
</glyph>
<glyph name="Eth" format="1">
  <advance width="1019.904"/>
  <unicode hex="00D0"/>
  <outline>
    <contour>
      <point x="926" y="815" type="qcurve" smooth="yes"/>
      <point x="926" y="664" type="line" smooth="yes"/>
      <point x="926.0" y="353.552238806"/>
      <point x="662.029850746" y="0.0"/>
      <point x="418" y="0" type="qcurve" smooth="yes"/>
      <point x="199" y="0" type="line"/>
      <point x="199" y="743" type="line"/>
      <point x="43" y="743" type="line"/>
      <point x="43" y="805" type="line"/>
      <point x="199" y="805" type="line"/>
      <point x="199" y="1475" type="line"/>
      <point x="426" y="1475" type="line" smooth="yes"/>
      <point x="670.776119403" y="1475.0"/>
      <point x="926.0" y="1120.97014925"/>
    </contour>
    <contour>
      <point x="430" y="61" type="line" smooth="yes"/>
      <point x="627.014925373" y="61.0"/>
      <point x="848.0" y="377.895522388"/>
      <point x="848" y="657" type="qcurve" smooth="yes"/>
      <point x="848" y="813" type="line" smooth="yes"/>
      <point x="848.0" y="1095.8358209"/>
      <point x="627.970149254" y="1413.0"/>
      <point x="422" y="1413" type="qcurve" smooth="yes"/>
      <point x="276" y="1413" type="line"/>
      <point x="276" y="805" type="line"/>
      <point x="514" y="805" type="line"/>
      <point x="514" y="743" type="line"/>
      <point x="276" y="743" type="line"/>
      <point x="276" y="61" type="line"/>
    </contour>
  </outline>
</glyph>
<glyph name="Oslash" format="1">
  <advance width="974.848"/>
  <unicode hex="00D8"/>
  <outline>
    <contour>
      <point x="821" y="1673" type="line"/>
      <point x="887" y="1673" type="line"/>
      <point x="758" y="1346" type="line"/>
      <point x="819.194029851" y="1257.19402985"/>
      <point x="883.0" y="984.910447761"/>
      <point x="883" y="817" type="qcurve" smooth="yes"/>
      <point x="883" y="662" type="line" smooth="yes"/>
      <point x="883.0" y="354.537313433"/>
      <point x="676.552238806" y="-25.0"/>
      <point x="487" y="-25" type="qcurve" smooth="yes"/>
      <point x="419.835820896" y="-25.0"/>
      <point x="306.776119403" y="23.7313432836"/>
      <point x="262" y="70" type="qcurve"/>
      <point x="158" y="-195" type="line"/>
      <point x="92" y="-195" type="line"/>
      <point x="217" y="125" type="line"/>
      <point x="155.805970149" y="215.298507463"/>
      <point x="92.0" y="487.597014925"/>
      <point x="92" y="657" type="qcurve" smooth="yes"/>
      <point x="92" y="813" type="line" smooth="yes"/>
      <point x="92.0" y="1120.46268657"/>
      <point x="297.447761194" y="1499.0"/>
      <point x="487" y="1499" type="qcurve" smooth="yes"/>
      <point x="554.910447761" y="1499.0"/>
      <point x="670.223880597" y="1448.01492537"/>
      <point x="715" y="1401" type="qcurve"/>
    </contour>
    <contour>
      <point x="250" y="209" type="qcurve"/>
      <point x="686" y="1327" type="line"/>
      <point x="649.432835821" y="1379.23880597"/>
      <point x="548.194029851" y="1438.0"/>
      <point x="487" y="1438" type="qcurve" smooth="yes"/>
      <point x="326.552238806" y="1438.0"/>
      <point x="170.0" y="1077.20895522"/>
      <point x="170" y="819" type="qcurve" smooth="yes"/>
      <point x="170" y="653" type="line" smooth="yes"/>
      <point x="170.0" y="521.656716418"/>
      <point x="210.447761194" y="293.328358209"/>
    </contour>
    <contour>
      <point x="487" y="37" type="qcurve" smooth="yes"/>
      <point x="647.447761194" y="37.0"/>
      <point x="805.0" y="395.298507463"/>
      <point x="805" y="655" type="qcurve" smooth="yes"/>
      <point x="805" y="821" type="line" smooth="yes"/>
      <point x="805.0" y="950.850746269"/>
      <point x="764.552238806" y="1179.1641791"/>
      <point x="725" y="1262" type="qcurve"/>
      <point x="291" y="143" type="line"/>
      <point x="327.567164179" y="93.0"/>
      <point x="426.552238806" y="37.0"/>
    </contour>
  </outline>
</glyph>
<glyph name="oslash" format="1">
  <advance width="770.048"/>
  <unicode hex="00F8"/>
  <outline>
    <contour>
      <point x="641" y="1243" type="line"/>
      <point x="698" y="1243" type="line"/>
      <point x="588" y="963" type="line"/>
      <point x="638.0" y="893.597014925"/>
      <point x="694.0" y="686.373134328"/>
      <point x="694" y="561" type="qcurve" smooth="yes"/>
      <point x="694" y="487" type="line" smooth="yes"/>
      <point x="694.0" y="270.582089552"/>
      <point x="524.791044776" y="-20.0"/>
      <point x="383" y="-20" type="qcurve" smooth="yes"/>
      <point x="337.47761194" y="-20.0"/>
      <point x="256.582089552" y="11.8955223881"/>
      <point x="223" y="41" type="qcurve"/>
      <point x="131" y="-195" type="line"/>
      <point x="74" y="-195" type="line"/>
      <point x="184" y="84" type="line"/>
      <point x="132.507462687" y="152.656716418"/>
      <point x="76.0" y="361.626865672"/>
      <point x="76" y="487" type="qcurve" smooth="yes"/>
      <point x="76" y="561" type="line" smooth="yes"/>
      <point x="76.0" y="778.164179104"/>
      <point x="245.208955224" y="1069.0"/>
      <point x="387" y="1069" type="qcurve" smooth="yes"/>
      <point x="433.268656716" y="1069.0"/>
      <point x="514.910447761" y="1036.59701493"/>
      <point x="547" y="1006" type="qcurve"/>
    </contour>
    <contour>
      <point x="213" y="160" type="qcurve"/>
      <point x="522" y="940" type="line"/>
      <point x="492.895522388" y="975.074626866"/>
      <point x="422.552238806" y="1014.0"/>
      <point x="383" y="1014" type="qcurve" smooth="yes"/>
      <point x="276.28358209" y="1014.0"/>
      <point x="147.0" y="750.074626866"/>
      <point x="147" y="565" type="qcurve" smooth="yes"/>
      <point x="147" y="473" type="line" smooth="yes"/>
      <point x="147.0" y="379.71641791"/>
      <point x="182.402985075" y="219.701492537"/>
    </contour>
    <contour>
      <point x="387" y="35" type="qcurve" smooth="yes"/>
      <point x="493.71641791" y="35.0"/>
      <point x="623.0" y="298.671641791"/>
      <point x="623" y="483" type="qcurve" smooth="yes"/>
      <point x="623" y="575" type="line" smooth="yes"/>
      <point x="623.0" y="666.791044776"/>
      <point x="587.597014925" y="827.298507463"/>
      <point x="557" y="887" type="qcurve"/>
      <point x="250" y="106" type="line"/>
      <point x="277.611940299" y="72.4179104478"/>
      <point x="347.447761194" y="35.0"/>
    </contour>
  </outline>
</glyph>
<glyph name="Lslash" format="1">
  <advance width="841.728"/>
  <unicode hex="0141"/>
  <outline>
    <contour>
      <point x="825" y="61" type="line"/>
      <point x="825" y="0" type="line"/>
      <point x="199" y="0" type="line"/>
      <point x="199" y="700" type="line"/>
      <point x="47" y="608" type="line"/>
      <point x="47" y="680" type="line"/>
      <point x="199" y="772" type="line"/>
      <point x="199" y="1475" type="line"/>
      <point x="276" y="1475" type="line"/>
      <point x="276" y="819" type="line"/>
      <point x="518" y="965" type="line"/>
      <point x="518" y="893" type="line"/>
      <point x="276" y="748" type="line"/>
      <point x="276" y="61" type="line"/>
    </contour>
  </outline>
</glyph>
<glyph name="lslash" format="1">
  <advance width="448.512"/>
  <unicode hex="0142"/>
  <outline>
    <contour>
      <point x="401" y="891" type="line"/>
      <point x="401" y="823" type="line"/>
      <point x="260" y="737" type="line"/>
      <point x="260" y="0" type="line"/>
      <point x="188" y="0" type="line"/>
      <point x="188" y="694" type="line"/>
      <point x="47" y="610" type="line"/>
      <point x="47" y="678" type="line"/>
      <point x="188" y="762" type="line"/>
      <point x="188" y="1520" type="line"/>
      <point x="260" y="1561" type="line"/>
      <point x="260" y="805" type="line"/>
    </contour>
  </outline>
</glyph>
<glyph name="florin" format="1">
  <advance width="675.84"/>
  <unicode hex="0192"/>
  <outline>
    <contour>
      <point x="543" y="1487" type="qcurve" smooth="yes"/>
      <point x="578.074626866" y="1487.0"/>
      <point x="638.388059701" y="1472.68656716"/>
      <point x="666" y="1460" type="qcurve"/>
      <point x="657" y="1395" type="line"/>
      <point x="624.910447761" y="1411.41791045"/>
      <point x="567.820895522" y="1423.0"/>
      <point x="532" y="1423" type="qcurve" smooth="yes"/>
      <point x="476.029850746" y="1423.0"/>
      <point x="394.940298507" y="1340.79104478"/>
      <point x="383" y="1249" type="qcurve" smooth="yes"/>
      <point x="338" y="928" type="line"/>
      <point x="547" y="928" type="line"/>
      <point x="537" y="866" type="line"/>
      <point x="330" y="866" type="line"/>
      <point x="184" y="-197" type="line" smooth="yes"/>
      <point x="169.074626866" y="-308.194029851"/>
      <point x="67.671641791" y="-389.0"/>
      <point x="2" y="-389" type="qcurve" smooth="yes"/>
      <point x="-24.1194029851" y="-389.0"/>
      <point x="-78.0895522388" y="-376.462686567"/>
      <point x="-96" y="-369" type="qcurve"/>
      <point x="-88" y="-305" type="line"/>
      <point x="-66.3582089552" y="-313.955223881"/>
      <point x="-14.6268656716" y="-326.0"/>
      <point x="10" y="-326" type="qcurve" smooth="yes"/>
      <point x="48.0597014925" y="-326.0"/>
      <point x="101.805970149" y="-263.373134328"/>
      <point x="113" y="-188" type="qcurve" smooth="yes"/>
      <point x="258" y="866" type="line"/>
      <point x="88" y="866" type="line"/>
      <point x="98" y="928" type="line"/>
      <point x="266" y="928" type="line"/>
      <point x="311" y="1249" type="line" smooth="yes"/>
      <point x="329.656716418" y="1378.85074627"/>
      <point x="454.194029851" y="1487.0"/>
    </contour>
  </outline>
</glyph>
<glyph name="ogonek" format="1">
  <advance width="798.72"/>
  <unicode hex="02DB"/>
  <outline>
    <contour>
      <point x="569" y="-217" type="qcurve"/>
      <point x="586" y="-248" type="line"/>
      <point x="538.23880597" y="-274.119402985"/>
      <point x="443.268656716" y="-305.0"/>
      <point x="397" y="-305" type="qcurve" smooth="yes"/>
      <point x="331.328358209" y="-305.0"/>
      <point x="248.0" y="-242.208955224"/>
      <point x="248" y="-184" type="qcurve" smooth="yes"/>
      <point x="248.0" y="-132.507462687"/>
      <point x="329.776119403" y="-35.0746268657"/>
      <point x="385" y="0" type="qcurve"/>
      <point x="436" y="0" type="line"/>
      <point x="383.014925373" y="-39.552238806"/>
      <point x="319.0" y="-131.970149254"/>
      <point x="319" y="-176" type="qcurve" smooth="yes"/>
      <point x="319.0" y="-211.074626866"/>
      <point x="369.194029851" y="-256.0"/>
      <point x="408" y="-256" type="qcurve" smooth="yes"/>
      <point x="450.537313433" y="-256.0"/>
      <point x="526.462686567" y="-235.656716418"/>
    </contour>
  </outline>
</glyph>
<glyph name="tilde" format="1">
  <advance width="798.72"/>
  <unicode hex="02DC"/>
  <outline>
    <contour>
      <point x="590" y="1337" type="qcurve"/>
      <point x="637" y="1337" type="line"/>
      <point x="637.0" y="1259.3880597"/>
      <point x="577.701492537" y="1184.0"/>
      <point x="518" y="1184" type="qcurve" smooth="yes"/>
      <point x="453.820895522" y="1184.0"/>
      <point x="325.253731343" y="1276.0"/>
      <point x="276" y="1276" type="qcurve" smooth="yes"/>
      <point x="240.925373134" y="1276.0"/>
      <point x="209.0" y="1229.04477612"/>
      <point x="209" y="1188" type="qcurve"/>
      <point x="162" y="1188" type="line"/>
      <point x="162.0" y="1265.6119403"/>
      <point x="223.298507463" y="1341.0"/>
      <point x="283" y="1341" type="qcurve" smooth="yes"/>
      <point x="347.179104478" y="1341.0"/>
      <point x="475.492537313" y="1249.0"/>
      <point x="524" y="1249" type="qcurve" smooth="yes"/>
      <point x="559.074626866" y="1249.0"/>
      <point x="590.0" y="1295.95522388"/>
    </contour>
  </outline>
</glyph>
<glyph name="emdash" format="1">
  <advance width="1607.68"/>
  <unicode hex="2014"/>
  <outline>
    <contour>
      <point x="1544" y="602" type="line"/>
      <point x="1544" y="537" type="line"/>
      <point x="63" y="537" type="line"/>
      <point x="63" y="602" type="line"/>
    </contour>
  </outline>
</glyph>
<glyph name="quotedblleft" format="1">
  <advance width="512.0"/>
  <unicode hex="201C"/>
  <outline>
    <contour>
      <point x="145" y="1475" type="line"/>
      <point x="213" y="1100" type="line"/>
      <point x="178" y="1100" type="line"/>
      <point x="59" y="1475" type="line"/>
    </contour>
    <contour>
      <point x="371" y="1475" type="line"/>
      <point x="438" y="1100" type="line"/>
      <point x="403" y="1100" type="line"/>
      <point x="285" y="1475" type="line"/>
    </contour>
  </outline>
</glyph>
<glyph name="quotedblbase" format="1">
  <advance width="512.0"/>
  <unicode hex="201E"/>
  <outline>
    <contour>
      <point x="119" y="154" type="line"/>
      <point x="205" y="154" type="line"/>
      <point x="86" y="-221" type="line"/>
      <point x="51" y="-221" type="line"/>
    </contour>
    <contour>
      <point x="344" y="154" type="line"/>
      <point x="430" y="154" type="line"/>
      <point x="311" y="-221" type="line"/>
      <point x="276" y="-221" type="line"/>
    </contour>
  </outline>
</glyph>
<glyph name="dagger" format="1">
  <advance width="671.744"/>
  <unicode hex="2020"/>
  <outline>
    <contour>
      <point x="616" y="1049" type="line"/>
      <point x="616" y="977" type="line"/>
      <point x="356" y="993" type="line"/>
      <point x="379" y="711" type="line"/>
      <point x="354" y="0" type="line"/>
      <point x="317" y="0" type="line"/>
      <point x="293" y="711" type="line"/>
      <point x="315" y="993" type="line"/>
      <point x="55" y="977" type="line"/>
      <point x="55" y="1049" type="line"/>
      <point x="315" y="1030" type="line"/>
      <point x="293" y="1475" type="line"/>
      <point x="379" y="1475" type="line"/>
      <point x="356" y="1030" type="line"/>
    </contour>
  </outline>
</glyph>
<glyph name="perthousand" format="1">
  <advance width="1751.04"/>
  <unicode hex="2030"/>
  <outline>
    <contour>
      <point x="307" y="1489" type="qcurve" smooth="yes"/>
      <point x="409.23880597" y="1489.0"/>
      <point x="553.0" y="1299.47761194"/>
      <point x="553" y="1145" type="qcurve" smooth="yes"/>
      <point x="553.0" y="990.52238806"/>
      <point x="406.731343284" y="801.0"/>
      <point x="303" y="801" type="qcurve" smooth="yes"/>
      <point x="200.76119403" y="801.0"/>
      <point x="57.0" y="990.52238806"/>
      <point x="57" y="1145" type="qcurve" smooth="yes"/>
      <point x="57.0" y="1299.47761194"/>
      <point x="203.268656716" y="1489.0"/>
    </contour>
    <contour>
      <point x="305" y="860" type="qcurve" smooth="yes"/>
      <point x="387.835820896" y="860.0"/>
      <point x="479.0" y="1019.11940299"/>
      <point x="479" y="1143" type="qcurve" smooth="yes"/>
      <point x="479.0" y="1266.88059701"/>
      <point x="389.328358209" y="1430.0"/>
      <point x="305" y="1430" type="qcurve" smooth="yes"/>
      <point x="222.910447761" y="1430.0"/>
      <point x="131.0" y="1270.88059701"/>
      <point x="131" y="1147" type="qcurve" smooth="yes"/>
      <point x="131.0" y="1023.11940299"/>
      <point x="221.417910448" y="860.0"/>
    </contour>
    <contour>
      <point x="864" y="674" type="qcurve" smooth="yes"/>
      <point x="966.23880597" y="674.0"/>
      <point x="1110.0" y="484.47761194"/>
      <point x="1110" y="330" type="qcurve" smooth="yes"/>
      <point x="1110.0" y="175.52238806"/>
      <point x="963.731343284" y="-14.0"/>
      <point x="860" y="-14" type="qcurve" smooth="yes"/>
      <point x="757.76119403" y="-14.0"/>
      <point x="614.0" y="175.52238806"/>
      <point x="614" y="330" type="qcurve" smooth="yes"/>
      <point x="614.0" y="484.47761194"/>
      <point x="760.268656716" y="674.0"/>
    </contour>
    <contour>
      <point x="862" y="45" type="qcurve" smooth="yes"/>
      <point x="944.835820896" y="45.0"/>
      <point x="1036.0" y="204.119402985"/>
      <point x="1036" y="328" type="qcurve" smooth="yes"/>
      <point x="1036.0" y="451.880597015"/>
      <point x="946.328358209" y="614.0"/>
      <point x="862" y="614" type="qcurve" smooth="yes"/>
      <point x="779.910447761" y="614.0"/>
      <point x="688.0" y="455.880597015"/>
      <point x="688" y="332" type="qcurve" smooth="yes"/>
      <point x="688.0" y="208.119402985"/>
      <point x="778.417910448" y="45.0"/>
    </contour>
    <contour>
      <point x="1448" y="674" type="qcurve" smooth="yes"/>
      <point x="1550.23880597" y="674.0"/>
      <point x="1694.0" y="484.47761194"/>
      <point x="1694" y="330" type="qcurve" smooth="yes"/>
      <point x="1694.0" y="175.52238806"/>
      <point x="1547.73134328" y="-14.0"/>
      <point x="1444" y="-14" type="qcurve" smooth="yes"/>
      <point x="1341.76119403" y="-14.0"/>
      <point x="1198.0" y="175.52238806"/>
      <point x="1198" y="330" type="qcurve" smooth="yes"/>
      <point x="1198.0" y="484.47761194"/>
      <point x="1344.26865672" y="674.0"/>
    </contour>
    <contour>
      <point x="1446" y="45" type="qcurve" smooth="yes"/>
      <point x="1528.08955224" y="45.0"/>
      <point x="1620.0" y="204.119402985"/>
      <point x="1620" y="328" type="qcurve" smooth="yes"/>
      <point x="1620.0" y="451.880597015"/>
      <point x="1530.32835821" y="614.0"/>
      <point x="1446" y="614" type="qcurve" smooth="yes"/>
      <point x="1363.1641791" y="614.0"/>
      <point x="1272.0" y="455.880597015"/>
      <point x="1272" y="332" type="qcurve" smooth="yes"/>
      <point x="1272.0" y="208.119402985"/>
      <point x="1361.67164179" y="45.0"/>
    </contour>
    <contour>
      <point x="893" y="1475" type="line"/>
      <point x="967" y="1475" type="line"/>
      <point x="612" y="723" type="line"/>
      <point x="274" y="0" type="line"/>
      <point x="201" y="0" type="line"/>
      <point x="555" y="752" type="line"/>
    </contour>
  </outline>
</glyph>
<glyph name="guilsinglleft" format="1">
  <advance width="409.6"/>
  <unicode hex="2039"/>
  <outline>
    <contour>
      <point x="137" y="524" type="line"/>
      <point x="346" y="164" type="line"/>
      <point x="291" y="164" type="line"/>
      <point x="41" y="524" type="line"/>
      <point x="291" y="885" type="line"/>
      <point x="346" y="885" type="line"/>
    </contour>
  </outline>
</glyph>
<glyph name="fraction" format="1">
  <advance width="581.632"/>
  <unicode hex="2044"/>
  <outline>
    <contour>
      <point x="565" y="1505" type="line"/>
      <point x="633" y="1505" type="line"/>
      <point x="18" y="-31" type="line"/>
      <point x="-49" y="-31" type="line"/>
    </contour>
  </outline>
</glyph>
<glyph name="Euro" format="1">
  <advance width="911.36"/>
  <unicode hex="20AC"/>
  <outline>
    <contour>
      <point x="778" y="430" type="qcurve"/>
      <point x="846" y="410" type="line"/>
      <point x="807.940298507" y="217.462686567"/>
      <point x="639.447761194" y="-25.0"/>
      <point x="479" y="-25" type="qcurve" smooth="yes"/>
      <point x="295.417910448" y="-25.0"/>
      <point x="92.0" y="351.776119403"/>
      <point x="92" y="657" type="qcurve" smooth="yes"/>
      <point x="92" y="813" type="line" smooth="yes"/>
      <point x="92.0" y="1120.46268657"/>
      <point x="297.149253731" y="1499.0"/>
      <point x="477" y="1499" type="qcurve" smooth="yes"/>
      <point x="624.014925373" y="1499.0"/>
      <point x="797.194029851" y="1285.07462687"/>
      <point x="836" y="1100" type="qcurve"/>
      <point x="766" y="1073" type="line"/>
      <point x="730.925373134" y="1240.91044776"/>
      <point x="596.402985075" y="1438.0"/>
      <point x="477" y="1438" type="qcurve" smooth="yes"/>
      <point x="339.686567164" y="1438.0"/>
      <point x="183.432835821" y="1141.35820896"/>
      <point x="170" y="913" type="qcurve"/>
      <point x="549" y="913" type="line"/>
      <point x="549" y="850" type="line"/>
      <point x="168" y="850" type="line"/>
      <point x="168" y="604" type="line"/>
      <point x="549" y="604" type="line"/>
      <point x="549" y="541" type="line"/>
      <point x="172" y="541" type="line"/>
      <point x="189.164179104" y="322.343283582"/>
      <point x="345.686567164" y="37.0"/>
      <point x="483" y="37" type="qcurve" smooth="yes"/>
      <point x="603.895522388" y="37.0"/>
      <point x="738.447761194" y="241.940298507"/>
    </contour>
  </outline>
</glyph>
<glyph name="trademark" format="1">
  <advance width="1044.48"/>
  <unicode hex="2122"/>
  <outline>
    <contour>
      <point x="963" y="1475" type="line"/>
      <point x="963" y="952" type="line"/>
      <point x="907" y="952" type="line"/>
      <point x="907" y="1405" type="line"/>
      <point x="903" y="1405" type="line"/>
      <point x="762" y="952" type="line"/>
      <point x="696" y="952" type="line"/>
      <point x="555" y="1405" type="line"/>
      <point x="551" y="1405" type="line"/>
      <point x="551" y="952" type="line"/>
      <point x="498" y="952" type="line"/>
      <point x="498" y="1475" type="line"/>
      <point x="594" y="1475" type="line"/>
      <point x="731" y="1024" type="line"/>
      <point x="735" y="1024" type="line"/>
      <point x="872" y="1475" type="line"/>
    </contour>
    <contour>
      <point x="401" y="1475" type="line"/>
      <point x="401" y="1425" type="line"/>
      <point x="252" y="1425" type="line"/>
      <point x="252" y="952" type="line"/>
      <point x="195" y="952" type="line"/>
      <point x="195" y="1425" type="line"/>
      <point x="45" y="1425" type="line"/>
      <point x="45" y="1475" type="line"/>
    </contour>
  </outline>
</glyph>
<glyph name="bullet" format="1">
  <advance width="548.864"/>
  <outline>
    <contour>
      <point x="274" y="936" type="qcurve" smooth="yes"/>
      <point x="347.880597015" y="936.0"/>
      <point x="446.0" y="835.641791045"/>
      <point x="446" y="764" type="qcurve" smooth="yes"/>
      <point x="446.0" y="692.358208955"/>
      <point x="347.880597015" y="592.0"/>
      <point x="274" y="592" type="qcurve" smooth="yes"/>
      <point x="202.358208955" y="592.0"/>
      <point x="102.0" y="692.358208955"/>
      <point x="102" y="764" type="qcurve" smooth="yes"/>
      <point x="102.0" y="835.641791045"/>
      <point x="202.358208955" y="936.0"/>
    </contour>
  </outline>
</glyph>
<glyph name="macron" format="1">
  <advance width="798.72"/>
  <outline>
    <contour>
      <point x="618" y="1333" type="line"/>
      <point x="618" y="1266" type="line"/>
      <point x="180" y="1266" type="line"/>
      <point x="180" y="1333" type="line"/>
    </contour>
  </outline>
</glyph>
